<?xml version="1.0" encoding="UTF-8" standalone="no"?>
<svg
   width="420"
   height="460"
   viewBox="-250 -700 1400 1533.3332"
   version="1.1"
   id="svg31"
   sodipodi:docname="vectorized.svg"
   inkscape:version="1.4.2 (f4327f4, 2025-05-13)"
   xmlns:inkscape="http://www.inkscape.org/namespaces/inkscape"
   xmlns:sodipodi="http://sodipodi.sourceforge.net/DTD/sodipodi-0.dtd"
   xmlns="http://www.w3.org/2000/svg"
   xmlns:svg="http://www.w3.org/2000/svg">
  <defs
     id="defs31" />
  <sodipodi:namedview
     id="namedview31"
     pagecolor="#505050"
     bordercolor="#eeeeee"
     borderopacity="1"
     inkscape:showpageshadow="0"
     inkscape:pageopacity="0"
     inkscape:pagecheckerboard="0"
     inkscape:deskcolor="#505050"
     inkscape:zoom="18.90625"
     inkscape:cx="272.7405"
     inkscape:cy="179.49091"
     inkscape:window-width="3840"
     inkscape:window-height="2054"
     inkscape:window-x="-11"
     inkscape:window-y="-11"
     inkscape:window-maximized="1"
     inkscape:current-layer="layer2"
     showguides="true" />
  <path
     d="m 93.67694,-354.85027 c -11.05663,-0.19771 -22.01773,3.7736 -29.74023,11.4961 -5.768,5.768 -8.84797,13.08581 -9.79297,23.25781 -0.536,5.769 -1.04084,7.2097 -2.96484,8.4707 -6.475,4.243 -4.32863,23.19897 3.35937,29.66797 3.74,3.147 5.53836,10.33481 5.06836,20.25781 l -0.32617,6.90039 c -4.5,1.89 -9,3.77992 -13.5,5.66992 -15.44,6.485 -22.04436,9.78317 -26.94336,13.45117 -2.795,2.09301 -4.56042,2.57813 -9.3574208,2.57813 -13.067,0 -26.1633092,5.61108 -35.1953092,15.08008 -9.981,10.464 -15.745,27.54819 -13.875,41.11719 0.782,5.673 0.66518,7.0509 -0.75782,9.0039 -3.878,5.323 -9.01237,17.2278 -10.98437,25.4668 -1.833,7.658 -2.03964,10.76003 -1.55664,23.33203 0.186,4.833 0.37259,9.667 0.55859,14.5 -1.484,3 -2.97108,6.000006 -4.45508,9.000006 -8.243,16.659 -9.92759,29.128 -8.30859,61.5 0.684,13.674 0.83948,31.3260006 0.39648,45 -0.951,29.383 -0.95123,29.38312 1.88477,35.57812 4.631,10.115 16.22089,18.87943 26.58789,20.10743 3.781,0.448 5.84373,0.0866 9.42773,-1.64844 4.875,-2.36 6.30597,-5.00111 5.16797,-9.53711 -0.452,-1.801 -0.22454,-2.5 0.81446,-2.5 0.793,0 2.86647,-1.19616 4.60547,-2.66016 2.866,-2.412 3.124,-3.091 2.75,-7.25 -0.227,-2.524 -1.00457,-6.83984 -1.72657,-9.58984 -0.722,-2.75 -1.95614,-7.42944 -2.74414,-10.39844 -1.102,-4.153 -2.69344,-6.72186 -6.89844,-11.13086 -1.822,-1.9109994 -3.64479,-3.8214194 -5.46679,-5.7324194 0.482,-2.29 0.96136,-4.57914 1.44336,-6.86914006 2.104,-10.00200054 4.81514,-16.54753054 12.11914,-29.26953054 3.576,-6.228 7.6155592,-14.41059 8.9765592,-18.18359 3.226,-8.944 4.7685,-21.80141 3.9375,-32.81641 -0.222,-2.941 -0.44402,-5.88127 -0.66602,-8.82227 1.43,-1.796 2.85907,-3.59267 4.28907006,-5.38867 2.35899994,-2.964 5.99225994,-8.988676 8.07225994,-13.388676 1.261,-2.667 2.5222108,-5.333 3.7832108,-8 l 5.81054,12 5.81055,12.000006 v 18.5 c 0,10.175 0.37884,20.13291 0.83984,22.12891 0.641,2.772 0.12989,6.55 -2.16211,16 -1.65,6.804 -3.75859,17.54609 -4.68359,23.87109 -1.058,7.2350006 -3.29048,16.2035906 -6.02148,24.18359 -10.70200074,31.265 -14.8523508,65.44732 -11.02735074,90.820314 1.65499994,10.977 5.29159994,23.12776 9.80860074,32.75976 3.127,6.668 3.15931,6.90133 3.19531,22.73633 0.033,14.511 -0.18317,16.559 -2.32617,22 -6.2380008,15.836 -7.4528208,22.068 -7.5078208,38.5 -0.051,15.216 0.0351,15.857 4.74414,35 5.3160008,21.611 10.6427208,51.31641 10.6367208,59.31641 -0.004,4.616 -0.469,5.75042 -4.25,10.35742 -2.335,2.846 -7.7606408,8.20897 -12.0566408,11.91797 -11.169,9.643 -13.0880092,14.4039 -8.16601,20.2539 3.451,4.102 9.16556,5.1543 27.9765608,5.1543 16.94,0 23.78909,-1.03422 28.62109,-4.32422 7.939,-5.405 9.07997,-10.85747 6.04297,-28.85547 -2.987,-17.702 -3.03286,-18.3692 -2.00586,-28.6582 1.247,-12.49 6.54827,-33.03834 12.19727,-47.27734 2.535,-6.389 5.12481,-14.03147 5.75781,-16.98047 1.501,-6.997 0.56959,-22.69164 -2.06641,-34.80664 -2.932,-13.475 -2.70625,-16.64882 1.96875,-27.63282 5.341,-12.548 7.64608,-22.77525 9.95508,-44.15625 1.223,-11.329 3.21557,-22.98878 5.47657,-32.050774 1.954,-7.834 3.55273,-14.921 3.55273,-15.75 0,-0.829 0.337,-1.49923 0.75,-1.49023 1.697,0.038 9.42931,35.757414 10.82031,49.982414 2.133,21.813 4.00564,29.74937 10.93164,46.35937 1.231,2.953 2.46236,5.90638 3.69336,8.85938 -0.53,3.047 -1.06179,6.09362 -1.59179,9.14062 -0.875,5.027 -2.25155,12.74063 -3.06055,17.14063 -2.859,15.538 -1.7307,23.62267 5.9043,42.26367 2.504,6.114 5.89611,16.61594 7.5371,23.33594 5.54901,22.725 6.10038,34.00945 2.48438,50.93945 -2.427,11.362 -2.39706,19.73003 0.0859,23.95703 4.957,8.439 12.43623,10.37741 37.86523,9.81641 20.502,-0.453 23.64788,-1.33891 26.17188,-7.37891 2.147,-5.139 0.17553,-8.64403 -10.10547,-17.95703 -4.843,-4.387 -10.58572,-10.21989 -12.76172,-12.96289 -1.319,-1.662 -2.63803,-3.32628 -3.95703,-4.98828 0.22,-2.43 0.44015,-4.85906 0.66015,-7.28906 1,-11.033 5.16369,-33.80033 9.55469,-52.23633 5.737,-24.089 6.33386,-28.59177 5.75586,-43.38477 -0.525,-13.435 -1.94983,-19.85023 -7.79883,-35.11523 -2.042,-5.33 -2.2884,-7.62 -2.1914,-20.5 0.036,-4.833 0.0734,-9.667 0.10937,-14.5 1.524,-3.892 3.04827,-7.78573 4.57227,-11.67773 8.208,-20.962 9.07015,-25.95027 9.03515,-52.322264 -0.029,-21.972 -0.17365,-23.67567 -3.22265,-38.13867 -1.755,-8.326 -5.40342,-21.826 -8.10742,-30 -2.704,-8.1739994 -5.43536,-18.6863294 -6.06836,-23.36133 -0.633,-4.675 -2.75952,-15.025 -4.72852,-23 -3.322,-13.456 -3.49017,-14.85325 -2.32617,-19.40625 0.895,-3.502 1.06012,-9.082 0.57812,-19.5 -0.559,-12.099 -0.39153,-15.53375 0.98047,-20.09375 1.614,-5.366 5.58778,-13.923306 9.30078,-20.029306 0.615,-1.012 1.23266,-2.02511 1.84766,-3.03711 1.346,2.806 2.69306,5.61197 4.03906,8.41797 2.222,4.63 5.72707,10.286366 7.78906,12.568366 1.24901,1.383 2.49905,2.76544 3.74805,4.14844 0.042,5.572 0.085,11.14284 0.12695,16.71484 0.118,15.553 0.31993,17.27241 2.91993,24.69141 1.537,4.386 5.04015,11.69037 7.78515,16.23437 8.62,14.271 14.87305,30.2716406 14.87305,38.0566406 0,1.217 -2.0593,4.20455 -4.7793,6.9355494 -5.294,5.315 -6.87081,8.93927 -10.25781,23.57227 -2.622,11.33 -2.1143,13.73348 3.4707,16.39648 3.106,1.481 3.50058,2.12558 3.76758,6.14258 0.419,6.3 3.69166,8.64492 12.09766,8.66992 11.599,0.035 23.21328,-8.1168 28.98828,-20.3418 1.001,-2.12 2.00095,-4.23742 3.00195,-6.35742 l -1.125,-18.64258 c -0.781,-12.9339994 -0.83469,-26.1416194 -0.17969,-43.14062 1.226,-31.83 1.127,-41.888 -0.5,-50.875 -1.851,-10.221 -3.99429,-16.44058 -8.52929,-24.76758 -1.297,-2.381006 -2.59167,-4.761586 -3.88867,-7.142586 0.344,-2.952 0.68725,-5.90542 1.03125,-8.85742 1.149,-9.864 0.62823,-18.39942 -1.75977,-28.85742 -1.702,-7.455 -6.81391,-19.55064 -10.37891,-24.55664 -1.938,-2.721 -2.08937,-3.82528 -1.48437,-10.73828 1.79,-20.459 -8.71547,-40.74403 -25.48047,-49.20703 -7.144,-3.606 -16.52345,-5.96243 -23.81445,-5.98243 -4.176,-0.012 -6.219,-0.62365 -9.5,-2.84765 -6.819,-4.622 -11.42969,-6.92541 -26.17969,-13.06641 -4.667,-1.943 -9.333,-3.88512 -14,-5.82812 -0.106,-2.296 -0.21041,-4.59072 -0.31641,-6.88672 -0.45,-9.769 1.39868,-17.87628 4.38868,-19.23828 3.224,-1.469 6.14668,-7.6243 7.42968,-15.6543 1.241,-7.769 0.20389,-12.40109 -3.41211,-15.24609 -1.789,-1.407 -2.41193,-3.20745 -2.96093,-8.56445 -1.437,-14.029 -7.4333,-23.63738 -18.4043,-29.48438 -6.02513,-3.2115 -12.69415,-4.83059 -19.32813,-4.94922 z"
     style="fill:#ffffff"
     id="path52"
     sodipodi:nodetypes="ssscsccccscccscccccccscscsscccccccccccccsccsccsscscccscscscccscccscscccccccsccsccccscccsccssccccccccccscsccsccccccccccccccccscccccccss"
     sodipodi:insensitive="true"
     inkscape:label="Cuerpo entero frontal" />
  <path
     d="m 788.87816,-354.88933 c -10.8447,-0.13054 -21.2703,3.86789 -29.084,11.68164 -5.615,5.615 -8.7144,13.03533 -9.6504,23.11133 -0.536,5.769 -1.0409,7.2097 -2.9649,8.4707 -1.294,0.848 -2.7993,3.30083 -3.4043,5.54883 -2.035,7.558 2.3278,22.20459 7.4278,24.93359 1.581,0.846 2.7742,2.76442 3.4902,5.60742 1.482,5.884 1.3849,17.64996 -0.1621,19.75196 -0.688,0.934 -7.6839,4.38587 -15.5469,7.67187 -7.86297,3.286 -17.43727,8.00719 -21.27927,10.49219 -6.225,4.027 -7.61314,4.51953 -12.74414,4.51953 -28.836,0 -51.15289,25.25744 -48.83789,55.27344 0.204,2.651 0.40928,5.30212 0.61328,7.95312 -1.352,2.277 -2.7066,4.55308 -4.0586,6.83008 -2.232,3.756 -5.24331,10.11772 -6.69531,14.13672 -2.478,6.859 -2.64729,8.47264 -2.7793,26.30664 -0.047,6.333 -0.0956,12.667 -0.14257,19 -1.377,2.833 -2.75191,5.667006 -4.12891,8.500006 -2.271,4.675 -5.08495,12.1 -6.25195,16.5 -2.366,8.918 -2.50636,13.677 -2.19336,74.0000006 0.097,18.6999994 0.11125,36.6999994 0.0312,39.9999994 -0.168,6.963 2.45145,13.15989 8.43945,19.96289 4.228,4.803 13.61174,10.15984 19.42774,11.08984 8.981,1.436 17.15289,-3.71068 15.96289,-10.05468 -0.504,-2.684 -0.22078,-3.18939 2.32421,-4.15039 1.59401,-0.602 3.70251,-2.32318 4.6875,-3.82618 1.601,-2.444 1.65716,-3.32995 0.53516,-8.37695 -0.69,-3.104 -1.86528,-8.41859 -2.61328,-11.80859 -1.746,-7.915 -3.65039,-11.51335 -9.27539,-17.52735 -1.521,-1.6259994 -3.0415,-3.2509494 -4.5625,-4.8769494 0.526,-2.405 1.05212,-4.80984 1.57812,-7.21484 2.305,-10.5480006 4.97235,-16.8968006 12.27735,-29.2168006 3.587,-6.05 7.73675,-14.6 9.21875,-19 2.422,-7.19 2.72094,-9.65331 2.96094,-24.32031 0.089,-5.44 0.17857,-10.88032 0.26757,-16.32032 l 3.59571,-4.17968 c 1.978,-2.299 5.41381,-7.918286 7.63281,-12.488286 4.653,-9.58 4.31659,-9.67961 10.30859,3.02539 5.719,12.125006 6.20078,15.560206 5.92578,42.283206 -0.217,21.106 -0.49726,24.784 -2.32226,30.5 -1.141,3.575 -2.7996,11.225 -3.6836,17 -0.884,5.7750006 -3.57832,16.8000006 -5.98632,24.5 -9.7,31.014 -11.8653,43.741 -11.9043,70 -0.039,26.053994 2.01859,37.096964 10.55859,56.667964 2.8,6.417 2.90963,7.243 2.89063,22 -0.019,14.502 -0.18388,15.79203 -3.04688,23.83203 -8.921,25.05 -9.28917,41.997 -1.57617,72.5 4.621,18.277 10.64258,51.96216 10.64258,59.53516 0,4.119 -7.1508,11.70118 -14.9668,15.86718 -7.33395,3.909 -10.03315,7.16266 -10.03315,12.09766 0,7.342 3.739,9.60323 25,15.11523 11.656,3.022 26.1115,3.20177 30.8945,0.38477 8.272,-4.873 9.881,-13.14345 6.209,-31.93945 -1.157,-5.922 -2.1016,-13.98407 -2.0996,-17.91407 0.01,-14.956 5.1806,-38.15648 12.1836,-54.64648 8.507,-20.034 9.2759,-28.34 4.7559,-51.5 -3.109,-15.932 -2.9651,-18.31669 1.8769,-30.67969 5.399,-13.784 7.8233,-24.33031 9.1563,-39.82031 1.331,-15.475 1.2321,-14.90334 6.2422,-35.277334 2.269,-9.228 4.4335,-16.428 4.8105,-16 0.378,0.428 2.5606,8.20234 4.8496,17.27734 3.094,12.268994 4.5444,20.698994 5.6524,32.874994 1.706,18.739 3.9966,28.76422 9.5546,41.82422 4.731,11.117 4.8523,14.03978 1.3243,31.80078 -3.614,18.19 -3.1223,28.328 2.0117,41.5 6.851,17.576 9.4578,25.77792 12.1308,38.16992 3.214,14.898 3.6875,31.61308 1.1875,41.83008 -2.819,11.524 -3.2048,18.49438 -1.2988,23.48437 4.612,12.07601 16.0663,14.1251 41.9063,7.4961 17.744,-4.552 21.6523,-7.0383 21.6523,-13.7793 0,-4.001 -2.9233,-7.39731 -10.8203,-12.57031 -3.674,-2.407 -8.436,-6.21017 -10.582,-8.45117 -1.301,-1.358 -2.5994,-2.71622 -3.9004,-4.07422 0.218,-2.831 0.4343,-5.66119 0.6523,-8.49219 0.833,-10.84 4.7102,-32.07128 9.2422,-50.61328 8.677,-35.505 8.6246,-49.84237 -0.2754,-75.10938 -3.625,-10.29099 -3.6579,-10.53207 -3.5059,-25.20507 0.15,-14.471 0.2349,-15.01672 3.6739,-23.51172 1.937,-4.783 4.4281,-11.84155 5.5371,-15.68555 8.562,-29.671994 5.9548,-67.253274 -7.4902,-107.988274 -2.36,-7.1499994 -4.8198,-16.8249994 -5.4688,-21.5 -0.649,-4.675 -2.355,-13 -3.791,-18.5 -2.402,-9.197 -2.6328,-11.886 -2.8828,-33.5 -0.158,-13.692 0.1644,-25.587 0.7754,-28.5 0.577,-2.75 3.3349,-9.620536 6.1289,-15.269536 1.693,-3.423 3.3851,-6.84849 5.0781,-10.27149 1.115,2.406 2.2287,4.81275 3.3437,7.21875 1.839,3.97 5.2435,9.715546 7.5645,12.769546 1.407,1.851 2.8137,3.70173 4.2207,5.55273 0.013,4.833 0.026,9.667 0.039,14.5 0.056,20.477 2.4242,28.295 14.9902,49.5 5.591,9.435 8.8851,17.7570606 10.4551,26.41406054 0.379,2.09200006 0.7596,4.18535006 1.1386,6.27735006 -1.83,1.919 -3.6602,3.8349 -5.4902,5.7538994 -5.727,6.004 -6.0061,6.66269 -9.9961,23.55469 -0.909,3.85 -1.6495,8.04617 -1.6445,9.32617 0.01,2.662 5.0515,8.17383 7.4766,8.17383 1.317,0 1.497,0.66964 0.955,3.55664 -0.544,2.898 -0.2413,4.00877 1.6387,6.00977 9.388,9.993 31.6106,0.9117 40.1406,-16.4043 2.074,-4.21 2.2512,-5.68011 1.8242,-15.16211 -0.694,-15.422 -0.6234,-50.756 0.1426,-72.5 0.37,-10.491 0.2514,-22.09034 -0.2636,-25.90234 -1.449,-10.734 -3.6897,-18.32324 -8.3067,-28.11524 -1.417,-3.006 -2.8349,-6.009626 -4.2519,-9.015626 0.151,-4.747 0.304,-9.49519 0.455,-14.24219 0.638,-19.994 -1.8259,-30.62595 -10.5449,-45.50195 -3.283,-5.601 -3.4132,-6.19278 -2.7832,-12.55079 2.973,-29.986 -19.9032,-56.07424 -49.2402,-56.15625 -4.334,-0.012 -6.198,-0.63648 -10.543,-3.52148 -2.903,-1.928 -10.8853,-5.98081 -17.7363,-9.00781 -6.851,-3.027 -14.4801,-6.51114 -16.9551,-7.74414 -1.5,-0.747 -3,-1.49519 -4.5,-2.24219 -0.104,-2.333 -0.2105,-4.667 -0.3145,-7 -0.502,-11.198 0.4268,-15.09839 4.4668,-18.77539 4.137,-3.764 5.9913,-7.78425 7.2793,-15.78125 1.137,-7.061 -0.081,-12.33961 -3.3398,-14.47461 -1.912,-1.253 -2.4201,-2.70584 -2.9551,-8.46484 -1.345,-14.477 -7.652,-24.42425 -19.041,-30.03125 -6.3341,-3.11813 -12.9912,-4.6834 -19.498,-4.76172 z"
     style="fill:#ffffff"
     id="path51"
     inkscape:label="Cuerpo entero trasero"
     sodipodi:insensitive="true" />
  <path
     id="32"
     d="m 250.26446,-72.975264 c 1.627,8.987 1.726,19.045 0.5,50.875 -0.655,16.9990006 -0.6,30.2070006 0.181,43.141 l 1.125,18.642 c -1.001,2.12 -2.002,4.238 -3.003,6.358 -5.775,12.225 -17.389,20.376 -28.988,20.341 -8.406,-0.025 -11.678,-2.37 -12.097,-8.67 -0.267,-4.017 -0.662,-4.661 -3.768,-6.142 -5.585,-2.663 -6.093,-5.067 -3.471,-16.397 3.387,-14.633 4.964,-18.256 10.258,-23.571 2.72,-2.7309994 4.779,-5.7189994 4.779,-6.9359994 0,-7.785 -6.254,-23.7860006 -14.874,-38.0570006 -2.745,-4.544 -6.247,-11.849 -7.784,-16.235 -2.6,-7.419 -2.803,-9.137 -2.921,-24.69 -0.042,-5.572 -0.085,-11.144 -0.127,-16.716 -1.249,-1.383 -2.499,-2.766 -3.748,-4.149 -2.062,-2.282 -5.566,-7.937006 -7.788,-12.567006 -1.346,-2.806 -2.693,-5.613 -4.039,-8.419 -0.615,1.012 -1.232,2.025 -1.847,3.037 -3.713,6.106 -7.688,14.664006 -9.302,20.030006 -1.372,4.56 -1.539,7.995 -0.98,20.094 0.482,10.418 0.316,15.998 -0.579,19.5 -1.164,4.553 -0.996,5.95 2.326,19.406 1.969,7.975 4.097,18.325 4.73,23 0.633,4.6750006 3.363,15.1870006 6.067,23.361 2.704,8.174 6.354,21.674 8.109,30 3.049,14.463 3.193,16.167 3.222,38.139 0.035,26.371994 -0.827,31.360994 -9.035,52.322994 -1.524,3.892 -3.048,7.785 -4.572,11.677 -0.036,4.833 -0.073,9.667 -0.109,14.5 -0.097,12.88 0.148,15.17 2.19,20.5 5.849,15.265 7.275,21.681 7.8,35.116 0.578,14.793 -0.019,19.295 -5.756,43.384 -4.391,18.436 -8.555,41.203 -9.555,52.236 -0.22,2.43 -0.441,4.86 -0.661,7.29 1.319,1.662 2.638,3.325 3.957,4.987 2.176,2.743 7.919,8.576 12.762,12.963 10.281,9.313 12.253,12.819 10.106,17.958 -2.524,6.04 -5.67,6.926 -26.172,7.379 -25.429,0.561 -32.909,-1.377 -37.866,-9.816 -2.483,-4.227 -2.513,-12.596 -0.086,-23.958 3.616,-16.93 3.065,-28.215 -2.484,-50.94 -1.641,-6.72 -5.032,-17.221 -7.536,-23.335 -7.635,-18.641 -8.765,-26.726 -5.906,-42.264 0.809,-4.4 2.187,-12.114 3.062,-17.141 0.53,-3.047 1.061,-6.094 1.591,-9.141 -1.231,-2.953 -2.463,-5.906 -3.694,-8.859 -6.926,-16.61 -8.797,-24.546 -10.93,-46.359 -1.391,-14.225 -9.124,-49.944994 -10.821,-49.982994 -0.413,-0.009 -0.75,0.661 -0.75,1.49 0,0.829 -1.599,7.916 -3.553,15.75 -2.261,9.061994 -4.253,20.721994 -5.476,32.050994 -2.309,21.381 -4.615,31.609 -9.956,44.157 -4.675,10.984 -4.901,14.158 -1.969,27.633 2.636,12.115 3.569,27.81 2.068,34.807 -0.633,2.949 -3.224,10.59 -5.759,16.979 -5.649,14.239 -10.95,34.788 -12.197,47.278 -1.027,10.289 -0.98,10.956 2.007,28.658 3.037,17.998 1.895,23.45 -6.044,28.855 -4.832,3.29 -11.681,4.325 -28.621,4.325 -18.8110008,0 -24.5260008,-1.053 -27.9770008,-5.155 -4.9219992,-5.85 -3.003,-10.61 8.166,-20.253 4.296,-3.709 9.7220008,-9.072 12.0570008,-11.918 3.781,-4.607 4.246,-5.742 4.25,-10.358 0.006,-8 -5.32,-37.705 -10.6360008,-59.316 -4.709,-19.143 -4.796,-19.784 -4.745,-35 0.055,-16.432 1.27,-22.664 7.5080008,-38.5 2.143,-5.441 2.36,-7.489 2.327,-22 -0.036,-15.835 -0.069,-16.069 -3.196,-22.737 -4.5170008,-9.632 -8.1540008,-21.782 -9.80900074,-32.759 -3.82500006,-25.372994 0.325,-59.555994 11.02700074,-90.820994 2.731,-7.9799994 4.964,-16.9479994 6.022,-24.183 0.925,-6.325 3.033,-17.067 4.683,-23.871 2.292,-9.45 2.803,-13.228 2.162,-16 -0.461,-1.996 -0.839,-11.954 -0.839,-22.129 v -18.5 l -5.811,-12.000006 -5.811,-12 c -1.261,2.667 -2.5220008,5.333 -3.7830008,8 -2.08,4.4 -5.713,10.425006 -8.07199994,13.389006 -1.43000006,1.796 -2.85900006,3.593 -4.28900006,5.389 0.222,2.941 0.444,5.881 0.666,8.822 0.831,11.015 -0.712,23.872 -3.938,32.816 -1.361,3.773 -5.3989992,11.956 -8.9749992,18.184 -7.304,12.722 -10.015,19.267 -12.119,29.26900054 -0.482,2.29000006 -0.963,4.58000006 -1.445,6.87000006 1.822,1.911 3.646,3.821 5.468,5.7319994 4.205,4.409 5.797,6.977 6.899,11.13 0.788,2.969 2.022,7.649 2.744,10.399 0.722,2.75 1.498,7.065 1.725,9.589 0.374,4.159 0.116,4.838 -2.75,7.25 -1.739,1.464 -3.812,2.661 -4.605,2.661 -1.039,0 -1.267,0.699 -0.815,2.5 1.138,4.536 -0.293,7.178 -5.168,9.538 -3.584,1.735 -5.645,2.096 -9.426,1.648 -10.367,-1.228 -21.957,-9.993 -26.588,-20.108 -2.836,-6.195 -2.836,-6.195 -1.885,-35.578 0.443,-13.6739994 0.287,-31.326 -0.397,-45 -1.619,-32.372 0.066,-44.841 8.309,-61.5 1.484,-3 2.97,-6.000006 4.454,-9.000006 -0.186,-4.833 -0.372,-9.667 -0.558,-14.5 -0.483,-12.572 -0.276,-15.675 1.557,-23.333 1.972,-8.239 7.107,-20.142 10.985,-25.465 1.423,-1.953 1.538,-3.331 0.756,-9.004 -1.87,-13.569 3.895,-30.653 13.876,-41.117 9.032,-9.469 22.1289992,-15.081 35.1959992,-15.081 4.7970008,0 6.5610008,-0.486 9.3560008,-2.579 4.899,-3.668 11.504,-6.965 26.944,-13.45 4.5,-1.89 9,-3.781 13.5,-5.671 l 0.327,-6.9 c 0.47,-9.923 -1.329,-17.11 -5.069,-20.257 -7.688,-6.469 -9.835,-25.425 -3.36,-29.668 1.924,-1.261 2.429,-2.703 2.965,-8.472 0.945,-10.172 4.026,-17.488 9.794,-23.256 12.356,-12.356 33,-15.111 49.067,-6.547 10.971,5.847 16.968,15.454 18.405,29.483 0.549,5.357 1.172,7.159 2.961,8.566 3.616,2.845 4.652,7.476 3.411,15.245 -1.283,8.03 -4.204,14.186 -7.428,15.655 -2.99,1.362 -4.84,9.469 -4.39,19.238 0.106,2.296 0.211,4.59 0.317,6.886 4.667,1.943 9.333,3.886 14,5.829 14.75,6.141 19.361,8.443 26.18,13.065 3.281,2.224 5.324,2.836 9.5,2.848 7.291,0.02 16.671,2.377 23.815,5.983 16.765,8.463 27.269,28.748 25.479,49.207 -0.605,6.913 -0.453,8.017 1.485,10.738 3.565,5.006 8.677,17.102 10.379,24.557 2.388,10.458 2.908,18.993 1.759,28.857 -0.344,2.952 -0.687,5.905 -1.031,8.857 1.297,2.381 2.593,4.762 3.89,7.143006 4.535,8.327 6.677,14.547 8.528,24.768 z m -307.46,8.348 c -0.403,3.865 -0.46,13.102 -0.128,20.527 0.711,15.889 0.802,62.791 0.146,75.057 -0.422,7.885 -0.25,8.912 2.186,13.069 4.932,8.415 13.86,14.874 20.561,14.874 5.085,0 5.325,-1.553 1.487,-9.635 -1.941,-4.087 -3.751,-9.394 -4.021,-11.793 -0.427,-3.788 -0.213,-4.451 1.618,-5.032 2.758,-0.875 3.768,-0.161 6.044,4.278 2.087,4.069 6.735,8.863 7.678,7.92 0.507,-0.507 -2.368,-14.766 -4.267,-21.158 -0.314,-1.056 -3.216,-4.558 -6.449,-7.781 -6.952,-6.9309994 -7.085,-7.7899994 -3.419,-22.2419994 1.614,-6.3610006 4.25,-13.0300006 7.659,-19.3780006 2.859,-5.323 6.89,-12.829 8.957,-16.679 5.156,-9.602 7.12,-17.866 7.286,-30.666 0.076,-5.866 -0.172,-10.976 -0.55,-11.354 -0.378,-0.378 -2.597,-0.051 -4.932,0.727 -1.415,0.472 -2.83,0.943 -4.245,1.415 -0.043,3.146 -0.086,6.293 -0.129,9.439 -0.151,11.073 -1.364,14.206 -5.323,13.749 -0.894,-0.103 -1.789,-0.207 -2.683,-0.31 0.084,-2.833 0.169,-5.667 0.253,-8.5 0.302,-10.174 -1.069,-17.561 -4.592,-24.745 -2.928,-5.969 -2.309,-8.755006 1.944,-8.755006 1.834,0 3.019,1.159 5.116,5.000006 1.501,2.75 2.857,5.347 3.012,5.772 0.625,1.71 10.064,-2.734 14.7449992,-6.942 9.18800006,-8.261006 15.16,-24.335006 16.525,-44.480006 0.241,-3.55 0.481,-7.099 0.722,-10.649 -1.121,-2.348 -2.241,-4.696 -3.362,-7.044 -1.849,-3.874 -3.81299994,-7.065 -4.36299994,-7.091 -2.63100006,-0.122 -11.89799926,5.279 -15.86699926,9.248 -7.542,7.542 -13.644,23.387 -14.861,38.585 -0.326,4.072 -2.901,6.153 -5.522,4.461 -3.809,-2.459 -0.637,-23.743 5.28,-35.419 1.935,-3.818 2.175,-4.941 1.059,-4.941 -0.794,0 -2.328,-1.125 -3.41,-2.5 -1.082,-1.375 -2.173,-2.5 -2.425,-2.5 -1.088,0 -6.814,14.097 -8.327,20.5 -1.321,5.593 -1.541,10.053 -1.092,22.192 0.187,5.064 0.374,10.127 0.561,15.191 -1.579,3.103006 -3.157,6.206006 -4.736,9.309006 -4.956,9.74 -6.912,16.541 -8.136,28.281 z m 26.118,-125.473006 c -1.27,7.687 -1.27,7.933 -0.053,14.566 1.136,6.189 4.646,15.434 5.86,15.434 0.386,0 1.794,-1.189 3.127,-2.642 3.372,-3.675 13.4089992,-10.087 17.0399992,-10.884 3.079,-0.676 3.269,-0.926 4.32000006,-5.724 0.491,-2.24 1.147,-2.75 3.54399994,-2.75 2.63,0 3.054,0.451 3.993,4.25 2.397,9.696 3.178,11.673 6.8590008,17.369 4.143,6.41 9,10.744 16.168,14.427 10.718,5.507 38.651,2.817 50.251,-4.838 7.375,-4.867 8.185,-7.423 8.749,-27.602 0.436,-15.62 0.722,-18.034 2.25,-18.995 1.274,-0.801 2.226,-0.801 3.5,0 1.524,0.958 1.815,3.351 2.25,18.495 0.462,16.088 0.682,17.712 2.926,21.63 1.335,2.33 4.035,5.328 6,6.663 11.636,7.901 39.333,10.176 50.985,4.186 10.563,-5.43 18.966,-16.72 21.391,-28.74 1.082,-5.361 1.631,-6.396 3.544,-6.672 2.903,-0.419 5.154,1.458 5.154,4.299 0,1.794 1.279,2.771 6.579,5.024 3.754,1.596 8.859,4.879 11.887,7.647 1.769,1.617 3.539,3.234 5.308,4.851 0.478,-0.749 0.957,-1.498 1.435,-2.247 9.035,-14.149 6.728,-35.448 -5.321,-49.137 -7.379,-8.383 -19.552,-13.606 -31.727,-13.614 -5.773,-0.004 -7.261,-0.412 -11.161,-3.057 -7.782,-5.278 -32.399,-16.934 -35.776,-16.94 -0.398,-0.001 -0.724,1.912 -0.724,4.25 0,4.041 -0.157,4.266 -3.165,4.558 -2.368,0.23 -3.312,-0.159 -3.751,-1.542 -0.632,-1.991 -2.502,-15.6 -2.553,-18.575 -0.025,-1.455 -0.961,-1.037 -4.781,2.138 -6.84,5.684 -10.851,7.41 -18.495,7.957 -8.369,0.599 -13.835,-1.284 -21.249,-7.323 l -5.259,-4.284 c -0.208,1.517 -0.415,3.034 -0.623,4.551 -0.343,2.503 -0.627,5.725 -0.63,7.161 -0.003,1.436 -0.481,4.324 -1.063,6.419 -0.972,3.501 -1.315,3.784 -4.244,3.5 -3.059,-0.296 -3.184,-0.482 -3.096,-4.628 0.085,-4.021 -0.066,-4.278 -2.203,-3.742 -5.143,1.291 -26.617,11.541 -32.289,15.413 -5.683,3.879 -6.525,4.148 -12.999,4.148 -12.1020008,0 -24.935,5.492 -32.22,13.789 -4.201,4.785 -8.611,14.391 -9.738,21.211 z m 39.5329992,530.988 c -4.801,4.118 -8.60399994,8.14 -8.45099994,8.937 0.485,2.518 6.64199994,3.241 24.71700074,2.902 26.673,-0.5 27.794,-1.601 24.092,-23.674 -1.444,-8.61 -2.364,-18.639 -2.493,-27.153 -0.115,-7.648 -0.926,-17.185 -1.87,-22 -2.538,-12.952 -3.741,-35.28 -2.605,-48.306 1.575,-18.056 6.654,-34.559 13.972,-45.403 6.131,-9.085 16.163,-31.425 14.747,-32.841 -0.231,-0.231 -2.173,0.473 -4.314,1.565 -4.34,2.213 -13.485,2.681 -18.155,0.929 -11.304,-4.24 -19.958,-18.562 -19.122,-31.645 0.267,-4.178 0.613,-4.843 2.672,-5.134 3.32,-0.47 4.051,0.623 5.204,7.784 2.238,13.9 9.46,22.149 19.522,22.301 5.962,0.09 11.143,-3.515 14.885,-10.358 2.759,-5.045 2.943,-6.068 2.861,-15.892 -0.096,-11.493 -2.649,-25.712994 -6.808,-37.924994 -3.046,-8.943 -3.161,-11.667 -0.552,-13.063 1.566,-0.838 2.389,-0.646 3.954,0.919 1.707,1.707 5.422,12.107 7.66,21.445 0.489,2.042 0.912,2.476 1.459,1.498 1.333,-2.383 5.741,-24.942 6.911,-35.374 0.617,-5.5 1.313,-11.221 1.548,-12.714 0.39,-2.482 -0.123,-2.977 -6,-5.782 -7.011,-3.346 -11.236,-7.792 -16.11,-16.952 -6.796,-12.773 -18.677,-21.7369994 -32.124,-24.23799946 -9.468,-1.76099994 -10.275,-1.104 -14.558,11.84599946 -9.095,27.497 -12.0860008,44.48 -12.1250008,68.84 -0.035,22.040994 1.433,29.910994 9.1350008,48.953994 4.195,10.372 4.508,11.809 5.224,24.039 0.833,14.226 2.212,18.916 6.563,22.339 5.814,4.573 12.948,1.763 16.033,-6.315 1.83,-4.793 4.574,-6.492 7.099,-4.396 2.064,1.713 1.22,6.727 -2.081,12.359 -5.126,8.748 -16.861,11.052 -25.565,5.02 -2.22,-1.538 -4.228,-2.606 -4.463,-2.371 -1.606,1.606 -6.716,20.252 -7.713,28.142 -1.549,12.264 -0.307,23.275 5.158,45.729 5.621,23.098 10.314,51.772 9.841,60.136 -0.349,6.168 -0.743,7.174 -4.899,12.535 -2.486,3.206 -8.448,9.199 -13.2490008,13.317 z m 7.2070008,-485.415 c -0.485,0.3 -0.882,4.076 -0.882,8.392 0,7.747 0.095,8.038 7.38,22.691 9.488,19.085006 10.061,21.639006 9.166,40.881006 -0.802,17.26 -1.249,15.972 7.682,22.129 2.526,1.742 6.456,5.523 8.732,8.403 4.582,5.796 5.014,9.222 1.231,9.758 -1.747,0.248 -3.894,-1.298 -8.836,-6.363 -3.59,-3.68 -6.859,-6.302 -7.263,-5.827 -0.783,0.92 -6.507,25.068 -7.587,32.007 l -0.645,4.1430006 c 2.107,0.225 4.213,0.449 6.32,0.674 20.398,2.176 32.493,11.208 45.21,33.7619994 5.249,9.309 16.574,12.735 25.505,7.716 4.094,-2.301 6.401,-5.163 11.641,-14.439 3.56,-6.303 12.312,-15.5519994 18.431,-19.47899946 6.178,-3.96499994 14.25,-6.67099994 22.543,-7.55899994 l 6.726,-0.72 c -0.208,-1.54 -0.415,-3.0810006 -0.623,-4.6210006 -0.976,-7.233 -6.944,-32.121 -7.702,-32.121 -0.375,0 -3.418,2.925 -6.762,6.5 -3.344,3.575 -6.906,6.5 -7.915,6.5 -2.083,0 -4.234,-1.821 -4.234,-3.585 0,-2.317 9.11,-12.203 15.151,-16.44 2.045,-1.435 4.092,-2.869 6.137,-4.304 -0.225,-5.046 -0.451,-10.093 -0.676,-15.139 -0.44,-9.869 -0.286,-17.036 0.441,-20.586 0.614,-2.996 4.625,-12.871006 8.914,-21.946006 2.6,-5.5 5.198,-11 7.798,-16.5 -0.165,-2.595 -0.328,-5.189 -0.493,-7.784 -0.165,-2.595 -0.329,-5.189 -0.494,-7.784 -1.134,0.865 -2.27,1.731 -3.404,2.596 -7.346,5.603 -14.151,7.87 -24.874,8.285 -19.543,0.757 -38.905,-4.815 -46.402,-13.354 -1.033,-1.176 -2.065,-2.353 -3.098,-3.529 -1.033,1.176 -2.065,2.353 -3.098,3.529 -7.497,8.539 -26.859,14.111 -46.402,13.354 -10.41,-0.403 -17.844,-2.792 -24.17,-7.768 -1.411,-1.11 -2.963,-1.772 -3.448,-1.472 z m 34.186,372.927 c -0.961,7.099 -0.453,31.269 0.831,39.5 0.234,1.5 0.467,3 0.701,4.5 l 1.794,-6 c 0.986,-3.3 3.72,-10.725 6.075,-16.5 5.805,-14.236 6.905,-19.501 6.246,-29.881 -0.594,-9.356 -3.646,-26.119 -4.755,-26.119 -2.43,0 -9.068,21.026 -10.892,34.5 z m 7.682,-533.09 c -1.509,-0.47 -1.75,0.158 -1.75,4.555 0,6.816 2.15,11.783 5.46,12.614 3.029,0.76 4.54,3.143 4.54,7.159 0,7.566 13.581,24.128 21.002,25.612 9.547,1.909 16.013,-0.421 23.623,-8.515 5.896,-6.271 7.93,-9.793 8.877,-15.37 1.143,-6.735 1.542,-7.457 4.907,-8.863 2.616,-1.093 3.49,-2.231 4.403,-5.733 1.08,-4.142 1.545,-7.921 1.299,-10.556 -0.061,-0.653 -1.573,-1.328 -3.361,-1.5 -1.083,-0.104 -2.167,-0.209 -3.25,-0.313 -0.019,-3.333 -0.037,-6.667 -0.056,-10 -0.044,-7.819 -0.499,-10.984 -2.088,-14.511 -2.697,-5.988 -7.625,-10.756 -14.35,-13.884 -4.569,-2.126 -6.952,-2.557 -14.006,-2.537 -10.314,0.03 -16.652,2.459 -22.801,8.74 -5.988,6.117 -7.491,10.433 -7.664,22.013 -0.153,10.284 -1.007,12.265 -4.785,11.089 z m 44.353,347.247006 c -4.829,1.715 -5.079,1.976 -4.625,4.828 0.264,1.658 0.959,7.262 1.544,12.453 1.192,10.574 4.154,26.252 6.246,33.062 0.461,1.5 0.921,3 1.382,4.5 0.576,-2 1.151,-4 1.727,-6 5.563,-19.334 7.326,-22.18 11.592,-18.726 0.718,0.582 1.436,1.162 2.154,1.744 -0.999,2.997 -1.997,5.994 -2.996,8.991 -4.923,14.775 -6.589,24.600994 -6.609,38.990994 -0.02,14.264 0.628,16.493 6.505,22.37 6.806,6.805 16.173,6.123 23.04,-1.679 3.854,-4.379 5.936,-9.607 7.638,-19.191 0.692,-3.896 1.159,-4.542 3.482,-4.81 3.701,-0.428 4.761,2.028 3.805,8.81 -2.535,17.975 -12.979,29 -27.473,29 -4.102,0 -7.363,-0.648 -9.985,-1.985 -2.141,-1.092 -4.038,-1.84 -4.214,-1.664 -1.332,1.332 9.018,24.071 16.001,35.155 5.088,8.076 8.668,17.403 11.318,29.494 2.837,12.942 2.472,45.068 -0.698,61.5 -1.688,8.748 -2.241,14.735 -2.043,22.093 0.185,6.88 -0.406,14.02 -1.858,22.434 -1.172,6.788 -2.221,14.546 -2.333,17.239 -0.181,4.364 0.144,5.205 2.984,7.744 4.146,3.706 8.163,4.246 28.497,3.829 23.118,-0.474 22.993,-0.264 8.354,-14.099 -6.361,-6.011 -12.748,-12.948 -14.193,-15.414 -2.459,-4.196 -2.586,-5.022 -1.984,-12.856 0.943,-12.27 5.112,-35.709 9.6,-53.97 5.285,-21.503 6.039,-26.201 6.039,-37.634 0,-11.418 -0.982,-16.987 -5.227,-29.632 -1.037,-3.089 -2.073,-6.177 -3.11,-9.266 -0.698,0.656 -1.397,1.312 -2.095,1.968 -5.005,4.702 -13.662,6.305 -19.925,3.688 -8.166,-3.412 -14.653,-17.871 -8.993,-20.043 2.52,-0.967 4.939,1.104 6.198,5.306 2.51,8.379 10.713,10.752 16.649,4.816 4.204,-4.204 5.355,-8.47 6.123,-22.703 0.513,-9.498 1.141,-12.806 3.608,-19 8.628,-21.659 10.765,-32.281 10.762,-53.499994 -0.003,-21.528 -4.51,-45.916 -12.846,-69.5 l -3.711,-10.49999946 c -1.236,-0.103 -2.473,-0.207 -3.709,-0.31 -5.362,-0.448 -15.393,2.38600006 -21.581,6.09700006 -6.858,4.1129994 -13.768,11.6569994 -18.067,19.7229994 -4.475,8.396 -10.57,14.373 -16.973,16.647 z m 19.905,165.842994 c -2.496,13.928 -2.05,21.861 1.838,32.715 11.025,30.775 10.904,30.497 11.798,27.285 0.459,-1.65 0.821,-11.775 0.804,-22.5 -0.036,-22.148 -1.798,-32.591 -7.639,-45.264 -3.824,-8.297 -3.948,-8.156 -6.801,7.764 z m 59.888,-370.205 c -2.275,4.547 -2.622,6.552 -2.75,15.867 -0.331,24.138 7.464,43.566 20.654,51.474006 8.561,5.133 9.757,5.011 12.641,-1.289 2.599,-5.678006 4.79,-7.333006 7.445,-5.629006 2.205,1.415006 1.84,4.618006 -1.392,12.235006 -2.414,5.689 -2.753,7.821 -2.866,18 -0.043,3.849 -0.085,7.698 -0.128,11.547 -0.917,0.105 -1.833,0.211 -2.75,0.316 -3.758,0.432 -4.75,-2.545 -4.75,-14.256 v -9.31 c -0.917,-0.2 -1.833,-0.401 -2.75,-0.601 -1.513,-0.331 -3.763,-0.89 -5,-1.242 -2.231,-0.635 -2.25,-0.551 -2.25,9.816 0,13.381 2.51,23.451 8.525,34.203 12.286,21.963 17.475,35.8280006 17.475,46.6980006 0,4.5409994 -0.323,5.1219994 -5.891,10.5899994 -5.78,5.677 -5.932,5.969 -8.077,15.515 -1.203,5.351 -2.039,10.457 -1.859,11.346 0.51,2.52 5.045,-1.515 7.284,-6.48 1.973,-4.375 4.775,-5.977 7.091,-4.055 2.357,1.956 1.703,5.575 -2.73,15.117 -3.459,7.446 -3.934,9.157 -2.75,9.906 2.476,1.567 6.362,1.026 11.691,-1.63 5.702,-2.842 10.152,-7.377 13.31,-13.568 1.999,-3.918 2.04,-4.746 1.045,-20.876 -0.711,-11.526 -0.716,-26.9449994 -0.016,-49.142 1.355,-42.956 0.136,-52.003 -9.207,-68.316 -1.331,-2.323 -2.661,-4.646006 -3.992,-6.969006 0.3,-3.677 0.602,-7.354 0.902,-11.031 1.419,-17.371 -0.716,-30.604 -6.892,-42.71 -2.283,-4.476 -3.176,-4.725 -4.727,-1.321 -0.673,1.476 -1.973,2.5 -3.177,2.5 -1.988,0 -1.977,0.122 0.465,4.941 5.917,11.676 9.089,32.96 5.28,35.419 -3.371,2.176 -5.178,-0.361 -5.993,-8.415 -1.34,-13.252 -7.253,-27.577 -14.54,-35.225 -2.596,-2.724 -13.476,-8.765 -15.627,-8.675 -0.6,0.025 -2.262,2.387 -3.694,5.25 z"
     fill="#020202"
     stroke="none"
     sodipodi:nodetypes="cccccccsccsccccccccccccssccscccsccccsccscscccccscscccscccscscsccsscssccsccscccccccccccccsscscsccccccccccsscsccsccsccccccccscccccccccscccsccccscccccsscccccccscccccccscscsssccccsccscccsccsccccccccccscsccccccscsscccccscccccsccsccscccssccscsscscssccccccsccsccccccsccccssscccccccccccccccccssssccscccsccccccccssscccssscscscscscscccccccccssccccccccccsccscssccscccsccscsscccscsccsccccssscccsscccccscccscccscscccssccscsccccccscccccc" />
  <path
     id="path1"
     d="m 946.68746,-67.503264 c 0.515,3.812 0.633,15.412 0.263,25.903 -0.766,21.744 -0.836,57.078 -0.142,72.5 0.427,9.482 0.249,10.952 -1.825,15.162 -8.53,17.316 -30.752,26.398 -40.14,16.405 -1.88,-2.001 -2.183,-3.113 -1.639,-6.011 0.542,-2.887 0.361,-3.556 -0.956,-3.556 -2.425,0 -7.466,-5.511 -7.476,-8.173 0,-1.28 0.736,-5.477 1.645,-9.327 3.99,-16.892 4.269,-17.55 9.996,-23.554 1.83,-1.9189994 3.66,-3.8359994 5.49,-5.7549994 -0.379,-2.092 -0.76,-4.185 -1.139,-6.27700006 -1.57,-8.65699994 -4.863,-16.97900054 -10.454,-26.41400054 -12.566,-21.205 -14.934,-29.023 -14.99,-49.5 -0.013,-4.833 -0.027,-9.667 -0.04,-14.5 -1.407,-1.851 -2.814,-3.701 -4.221,-5.552 -2.321,-3.054 -5.725,-8.800006 -7.564,-12.770006 -1.115,-2.406 -2.228,-4.813 -3.343,-7.219 -1.693,3.423 -3.387,6.848 -5.08,10.271 -2.794,5.649 -5.551,12.520006 -6.128,15.270006 -0.611,2.913 -0.934,14.808 -0.776,28.5 0.25,21.614 0.481,24.303 2.883,33.5 1.436,5.5 3.142,13.825 3.791,18.5 0.649,4.6750006 3.11,14.3500006 5.47,21.5 13.445,40.735 16.051,78.316 7.489,107.987994 -1.109,3.844 -3.6,10.902 -5.537,15.685 -3.439,8.495 -3.524,9.041 -3.674,23.512 -0.152,14.673 -0.119,14.915 3.506,25.206 8.9,25.267 8.952,39.604 0.275,75.109 -4.532,18.542 -8.408,39.773 -9.241,50.613 -0.218,2.831 -0.435,5.661 -0.653,8.492 1.301,1.358 2.6,2.717 3.901,4.075 2.146,2.241 6.908,6.043 10.582,8.45 7.897,5.173 10.82,8.57 10.82,12.571 0,6.741 -3.909,9.228 -21.653,13.78 -25.84,6.629 -37.294,4.58 -41.906,-7.496 -1.906,-4.99 -1.519,-11.961 1.3,-23.485 2.5,-10.217 2.025,-26.933 -1.189,-41.831 -2.673,-12.392 -5.279,-20.593 -12.13,-38.169 -5.134,-13.172 -5.626,-23.31 -2.012,-41.5 3.528,-17.761 3.406,-20.684 -1.325,-31.801 -5.558,-13.06 -7.848,-23.085 -9.554,-41.824 -1.108,-12.176 -2.559,-20.606 -5.653,-32.874994 -2.289,-9.075 -4.47,-16.85 -4.848,-17.278 -0.377,-0.428 -2.543,6.772 -4.812,16 -5.01,20.373994 -4.91,19.802994 -6.241,35.277994 -1.333,15.49 -3.757,26.036 -9.156,39.82 -4.842,12.363 -4.987,14.748 -1.878,30.68 4.52,23.16 3.752,31.466 -4.755,51.5 -7.003,16.49 -12.176,39.69 -12.184,54.646 0,3.93 0.943,11.992 2.1,17.914 3.672,18.796 2.063,27.067 -6.209,31.94 -4.783,2.817 -19.239,2.637 -30.895,-0.385 -21.261,-5.512 -25,-7.773 -25,-15.115 0,-4.935 2.699,-8.189 10.033,-12.098 7.816,-4.166 14.967,-11.747 14.967,-15.866 0,-7.573 -6.022,-41.259 -10.643,-59.536 -7.713,-30.503 -7.344,-47.45 1.577,-72.5 2.863,-8.04 3.027,-9.33 3.046,-23.832 0.019,-14.757 -0.09,-15.583 -2.89,-22 -8.54,-19.571 -10.598,-30.614 -10.559,-56.667994 0.039,-26.259 2.204,-38.986 11.904,-70 2.408,-7.6999994 5.103,-18.7249994 5.987,-24.5 0.884,-5.775 2.542,-13.425 3.683,-17 1.825,-5.716 2.105,-9.394 2.322,-30.5 0.275,-26.723 -0.206,-30.158 -5.925,-42.283006 -5.992,-12.705 -5.656,-12.606 -10.309,-3.026 -2.219,4.57 -5.654,10.190006 -7.632,12.489006 l -3.597,4.179 c -0.089,5.44 -0.177,10.881 -0.266,16.321 -0.24,14.667 -0.54,17.13 -2.962,24.32 -1.482,4.4 -5.631,12.95 -9.218,19 -7.305,12.32 -9.973,18.668 -12.278,29.2160006 -0.526,2.405 -1.051,4.811 -1.577,7.216 1.521,1.626 3.04,3.251 4.561,4.8769994 5.625,6.014 7.53,9.612 9.276,17.527 0.748,3.39 1.924,8.704 2.614,11.808 1.122,5.047 1.065,5.933 -0.536,8.377 -0.985,1.503 -3.094,3.225 -4.688,3.827 -2.545,0.961 -2.828,1.466 -2.324,4.15 1.19,6.344 -6.982,11.491 -15.963,10.055 -5.816,-0.93 -15.199,-6.287 -19.427,-11.09 -5.988,-6.803 -8.608,-13 -8.44,-19.963 0.08,-3.3 0.066,-21.3 -0.031,-39.9999994 -0.313,-60.3230006 -0.173,-65.0820006 2.193,-74.0000006 1.167,-4.4 3.981,-11.825 6.252,-16.5 1.377,-2.833 2.753,-5.667006 4.13,-8.500006 0.047,-6.333 0.094,-12.667 0.141,-19 0.132,-17.834 0.302,-19.448 2.78,-26.307 1.452,-4.019 4.464,-10.381 6.696,-14.137 1.352,-2.277 2.706,-4.553 4.058,-6.83 -0.204,-2.651 -0.41,-5.302 -0.614,-7.953 -2.315,-30.016 20.002,-55.273 48.838,-55.273 5.131,0 6.519,-0.492 12.744,-4.519 3.842,-2.485 13.418,-7.207 21.281,-10.493 7.863,-3.286 14.858,-6.738 15.546,-7.672 1.547,-2.102 1.644,-13.867 0.162,-19.751 -0.716,-2.843 -1.909,-4.761 -3.49,-5.607 -5.1,-2.729 -9.463,-17.376 -7.428,-24.934 0.605,-2.248 2.11,-4.701 3.404,-5.549 1.924,-1.261 2.429,-2.703 2.965,-8.472 0.936,-10.076 4.035,-17.496 9.65,-23.111 12.502,-12.502 31.692,-15.235 48.583,-6.92 11.389,5.607 17.696,15.554 19.041,30.031 0.535,5.759 1.043,7.212 2.955,8.465 3.259,2.135 4.477,7.415 3.34,14.476 -1.288,7.997 -3.142,12.016 -7.279,15.78 -4.04,3.677 -4.969,7.578 -4.467,18.776 0.104,2.333 0.21,4.667 0.314,7 1.5,0.747 3,1.495 4.5,2.242 2.475,1.233 10.105,4.718 16.956,7.745 6.851,3.027 14.832,7.08 17.735,9.008 4.345,2.885 6.21,3.508 10.544,3.52 29.337,0.082 52.212,26.171 49.239,56.157 -0.63,6.358 -0.499,6.949 2.784,12.55 8.719,14.876 11.182,25.509 10.544,45.503 -0.151,4.747 -0.303,9.495 -0.454,14.242 1.417,3.006 2.834,6.010006 4.251,9.016006 4.617,9.792 6.859,17.38 8.308,28.114 z m -307.386,-2.607 c -1.713,10.983 -1.708,10.435 -0.44,44.367 0.787,21.0560006 0.778,33.6530006 -0.032,46.246 -0.971,15.093 -0.914,17.784 0.44,21.026 4.599,11.007 19.159,20.411 25.443,16.434 1.184,-0.749 0.709,-2.46 -2.75,-9.906 -4.433,-9.542 -5.087,-13.161 -2.73,-15.117 2.295,-1.905 5.112,-0.332 7.033,3.927 2.004,4.443 5.901,8.531 7.305,7.663 1.281,-0.792 -3.391,-20.249 -5.797,-24.142 -1.048,-1.696 -3.726,-4.546 -5.95,-6.333 -3.71,-2.982 -4.043,-3.644 -4.043,-8.0419994 0,-10.768 5.376,-25.6790006 15.006,-41.6220006 8.569,-14.186 10.253,-19.795 10.776,-35.863 0.372,-11.423 0.211,-13.796 -0.915,-13.436 -0.752,0.24 -1.817,1.501 -2.367,2.8 -4.955,11.706 -8.695,15.008 -17,15.008 -6.161,0 -10.813,-2.669 -13.946,-8.003 -1.582,-2.693 -2.044,-5.181 -2.012,-10.823 0.036,-6.224 -0.152,-7.059 -1.249,-5.559 -2.419,3.309 -5.442,12.848 -6.772,21.375 z m 12.927,-70.990006 c -2.026,7.955 -1.343,32.883 1.068,39 1.199,3.042006 1.808,7.462006 1.879,13.645006 0.129,11.194 1.468,13.355 8.275,13.355 3.835,0 4.594,-0.386 6.311,-3.21 1.074,-1.765 2.235,-4.5 2.582,-6.078 0.406,-1.85 2.061,-3.817 4.66,-5.54 11.89,-7.882 19.602,-18.381006 23.316,-31.739006 l 1.68,-6.042 c -1.037,-3.236 -2.073,-6.472 -3.11,-9.708 -2.824,-8.815 -5.16,-20.36 -6.651,-32.856 -0.186,-1.558 -0.371,-3.114 -0.557,-4.672 -2.371,0.657 -4.741,1.314 -7.112,1.971 -18.954,5.252 -27.777,13.948 -32.341,31.874 z m 12.727,-50.49 c -1.117,5.859 -1.415,13.699 -0.602,15.819 0.485,1.265 1.364,1.131 5.752,-0.878 2.849,-1.304 9.211,-3.329 14.139,-4.499 11.549,-2.743 15.317,-4.736 20.8,-11.004 3.432,-3.924 5.036,-5.042 6.858,-4.784 5.951,0.842 1.342,10.86 -7.557,16.424 -1.552,0.971 -3.105,1.941 -4.657,2.912 0.206,2.5 0.41,5 0.616,7.5 0.578,7.026 0.849,7.713 4.296,10.879 2.024,1.859 6.543,4.738 10.043,6.398 12.099,5.738 24.78,3.563 32.743,-5.615 1.204,-1.387 2.407,-2.775 3.611,-4.162 -0.195,-3.333 -0.389,-6.667 -0.584,-10 -0.321,-5.5 -1.303,-12.113 -2.183,-14.695 -2.284,-6.702 -8.184,-12.892 -16.405,-17.212 -4.622,-2.429 -7.045,-4.303 -7.045,-5.448 0,-2.166 1.894,-4.148 3.95,-4.135 3.357,0.021 12.365,5.175 17.448,9.982 7.553,7.143 10.567,14.311 12.188,28.981 0.7,6.34 1.755,13.651 2.342,16.248 2.546,11.255 8.29,23.085 16.254,33.479 2.825,3.686 3.8,5.782 3.35,7.199 -0.928,2.923 -4.275,3.64 -6.725,1.441 -4.87,-4.371 -14.933,-21.807 -17.8,-30.84 -0.698,-2.2 -1.469,-4.347 -1.711,-4.771 -0.242,-0.424 -2.469,1.014 -4.948,3.196 -6.345,5.585 -12.501,7.411 -23.208,6.884 -7.085,-0.349 -9.806,-0.988 -15.122,-3.552 -3.565,-1.719 -6.636,-2.972 -6.823,-2.785 -0.968,0.968 7.768,23.8 13.795,36.053 3.794,7.714 7.348,16.039006 7.898,18.500006 0.549,2.461 1.772,4.925 2.716,5.475 0.944,0.55 4.008,2.812 6.807,5.028 9.14,7.235 18.602,24.341 15.519,28.056 -2.618,3.154 -5.278,1.213 -9.178,-6.696 -2.064,-4.186 -5.851,-9.811 -8.415,-12.5 -1.554,-1.629 -3.107,-3.259 -4.661,-4.888 -0.301,1.5 -0.601,3 -0.902,4.5 -0.769,3.834 -0.246,29.862 0.617,30.725 0.162,0.162 5.653,-0.659 12.202,-1.824 9.49,-1.689 17.535,-2.224 39.631,-2.639 28.418,-0.533 45.517,0.408 61.134,3.367 4.322,0.819 8.094,1.252 8.384,0.962 0.878,-0.878 0.771,-33.412 -0.113,-34.282 -1.327,-1.306 -10.229,9.146 -13.131,15.419 -3.973,8.588 -4.074,8.745 -5.903,9.105 -2.805,0.552 -4.835,-1.884 -4.203,-5.043 1.753,-8.764 9.76248,-19.573439 19.135,-26.81 4.19632,-3.24 5.34955,-4.596 6.392,-8.661 0.655,-2.65 4.111,-10.576006 7.681,-17.612006 5.791,-11.414 14.955,-35.485 13.908,-36.532 -0.222,-0.222 -1.889,0.493 -3.705,1.588 -6.6,3.979 -13.45,5.5 -22.663,5.033 -9.568,-0.485 -14.501,-2.411 -19.64,-7.67 -3.244,-3.32 -4.489,-3.837 -4.518,-1.876 -0.047,3.179 -7.403,18.659 -12.525,26.357 -6.022,9.05 -9.274,11.62 -11.927,9.418 -2.392,-1.985 -1.846,-4.159 2.498,-9.94 9.512,-12.659 15.076,-26.321 16.937,-41.585 2.801,-22.981 4.651,-28.211 12.89,-36.45 4.675,-4.675 14.281,-10.05 17.961,-10.05 2.607,0 4.492,2.456 3.729,4.859 -0.341,1.075 -2.509,2.71 -4.817,3.633 -13.559,5.425 -19.735,15.356 -21.203,34.09 -0.211,2.694 -0.422,5.387 -0.633,8.081 1.527,1.699 3.055,3.398 4.582,5.097 5.969,6.639 10.959,8.589 20.715,8.094 7.918,-0.402 15.32,-3.356 21.62,-8.629 3.055,-2.557 3.367,-3.371 4.056,-10.583 0.249,-2.604 0.497,-5.21 0.746,-7.814 -1.384,-0.952 -2.767,-1.903 -4.15,-2.855 -8.065,-5.549 -12.82,-12.631 -10.421,-15.521 2.076,-2.502 4.592,-1.607 8.34,2.967 5.079,6.199 9.014,8.317 21.552,11.607 6.021,1.58 12.757,3.795 14.968,4.923 2.211,1.128 4.202,2.051 4.424,2.051 1.1,0 1.489,-9.5 0.619,-15.128 -3.311,-21.416 -20.145,-35.81 -41.943,-35.864 -5.581,-0.014 -7.136,-0.448 -11,-3.067 -6.158,-4.174 -14.049,-8.151 -28.803,-14.514 -13.678,-5.899 -15.507,-7.157 -18.272,-12.575 -2.001,-3.921 -5.925,-17.197 -5.925,-20.047 0,-2.485 3.704,-4.296 5.588,-2.732 1.896,1.573 2.588,0.782 3.335,-3.812 0.503,-3.095 1.262,-4.068 4.292,-5.495 4.083,-1.922 5.769,-5.848 5.779,-13.453 0.01,-3.994 -0.144,-4.201 -3.244,-4.5 -1.083,-0.104 -2.167,-0.209 -3.25,-0.313 -0.015,-3 -0.031,-6 -0.046,-9 -0.08,-15.658 -4.696,-23.931 -16.387,-29.368 -4.613,-2.146 -7.022,-2.589 -14.067,-2.589 -9.854,0 -17.078,2.689 -22.918,8.529 -5.711,5.711 -7.522,11.009 -7.554,22.094 -0.015,5.317 -0.382,10.021 -0.815,10.454 -0.433,0.433 -2.008,0.816 -3.5,0.85 -2.503,0.058 -2.695,0.355 -2.486,3.853 0.476,7.962 2.106,11.582 6.051,13.44 2.148,1.011 3.822,2.577 3.998,3.739 0.918,6.067 1.21,6.576 3.176,5.524 2.245,-1.201 4.66,-0.478 5.472,1.638 0.801,2.087 -1.841,12.962 -4.746,19.53 -3.072,6.947 -5.222,8.573 -18.94,14.325 -13.263,5.562 -22.531,10.212 -28.738,14.421 -3.864,2.62 -5.418,3.054 -11,3.068 -21.025,0.052 -38.046,13.685 -41.825,33.502 z m 34.575,532.369 c -2.632,2.152 -2.12,3.851 1.5,4.978 7.289,2.269 22.55,6.049 27,6.688 6.374,0.915 13.462,-0.257 15.822,-2.617 2.396,-2.396 2.566,-11.274 0.399,-20.928 -3.735,-16.644 -2.915,-33.453 2.676,-54.836 1.677,-6.415 3.119,-12.428 3.202,-13.362 0.1,-1.122 -1.714,-2.648 -5.349,-4.5 -3.559,-1.813 -6.698,-4.428 -8.894,-7.411 -1.131,-1.536 -2.263,-3.073 -3.394,-4.609 -1.34,1.3 -2.679,2.6 -4.019,3.9 -2.836,2.752 -5.756,4.384 -9.919,5.541 -5.576,1.55 -5.864,1.78 -5.243,4.208 4.39,17.162 10.089,54.952 9.09,60.277 -0.99,5.276 -5.934,11.122 -13.888,16.421 -3.978,2.651 -8.02,5.463 -8.983,6.25 z m 3.883,-277.378994 c -0.247,1.65 -0.319,11.325 -0.16,21.5 0.239,15.314994 0.674,19.962994 2.526,26.999994 4.017,15.259 4.323,15.143 6.825,-2.599 4.092,-29.013994 8.871,-43.002994 17.547,-51.358994 2.546,-2.452 4.629,-4.731 4.629,-5.065 0,-0.334 -1.575,-1.358 -3.5,-2.276 -2.647,-1.262 -3.5,-2.289 -3.5,-4.216 0,-3.748 2.537,-4.133 9.884,-1.498 13.5,4.842 27.033,2.598 36.496,-6.051 8.326,-7.61 9.929,-12.22 10.582,-30.4359994 0.179,-5 0.359,-10 0.538,-15 0.862,-0.1 1.724,-0.201 2.586,-0.301 1.422,-0.165 3.067,0.285 3.657,1 0.62,0.752 1.217,7.631 1.415,16.3009994 0.329,14.429 0.454,15.203 3.288,20.319 3.597,6.493 8.194,10.659 15.508,14.052 7.424,3.444 18.801,3.54 27.291,0.229 7.308,-2.85 10.147,-2.536 10.573,1.168 0.274,2.388 -0.235,3.017 -3.713,4.574 -1.344,0.602 -2.688,1.203 -4.032,1.805 1.672,1.642 3.343,3.284 5.015,4.926 8.808,8.652 13.867,22.641 17.331,47.926994 2.773,20.243 2.723,19.998 3.694,18.263 0.484,-0.865 2.117,-6.453 3.628,-12.418 2.539,-10.022 2.746,-12.324994 2.722,-30.344994 -0.019,-14.507 -0.479,-21.804 -1.795,-28.5 -2.581,-13.132 -7.144,-30.707 -10.632,-40.956 -1.676,-4.9259994 -3.737,-13.2509994 -4.578,-18.4999994 -2.159,-13.4760006 -5.384,-26.7410006 -6.776,-27.8730006 -1.183,-0.962 -13.035,-3.484 -21.878,-4.655 -20.793,-2.754 -64.045,-2.257 -85.868,0.987 -16.861,2.507 -16.161,2.139 -18.203,9.568 -0.972,3.536 -2.691,12.054 -3.819,18.929 -1.128,6.8750006 -3.397,16.3250006 -5.043,21 -4.99,14.174 -9.22,32.32 -12.238,52.5 z m 4.875,138.999994 c -0.742,3.3 -1.384,10.563 -1.428,16.14 -0.077,9.855 2.199,25.967 3.919,27.735 1.627,1.672 8.122,-0.489 12.001,-3.994 3.689,-3.333 6.412,-9.115 7.195,-15.279 0.406,-3.196 3.216,-4.961 5.555,-3.491 1.178,0.741 1.952,2.948 2.369,6.758 0.964,8.808 3.514,14.353 8.142,17.705 5.973,4.326 8.06,3.932 10.615,-2.006 5.869,-13.642 6.203,-23.19 1.581,-45.082 -3.365,-15.936 -5.936,-22.653 -10.383,-27.126 -5.482,-5.514 -11.395,-6.65 -19.233,-3.695 -3.58,1.349 -7.079,-0.483 -6.652,-3.483 0.786,-5.523 16.34,-8.003 24.401,-3.891 2.2,1.122 5.912,4.115 8.249,6.65 1.416,1.536 2.833,3.073 4.249,4.609 0.823,-1.86 1.645,-3.72 2.468,-5.58 1.357,-3.069 3.328,-8.686 4.38,-12.482 1.787,-6.449 2.351,-10.316 5.1,-34.988 0.582,-5.225 2.791,-16.25 4.91,-24.500994 2.119,-8.251 4.574,-19.726 5.455,-25.5 1.875,-12.285 3.39,-27.875 2.769,-28.496 -0.238,-0.238 -2.269,1.139 -4.514,3.06 -6.091,5.214 -13.583,8.345 -22.891,9.567 -4.546,0.597 -10.176,1.772 -12.512,2.612 -5.247,1.887 -11.605,8.602 -14.842,15.673 -6.637,14.497 -10.712,42.613994 -11.986,82.720994 -0.63,19.84 -0.735,20.621 -4.107,30.364 -1.903,5.5 -4.068,12.7 -4.81,16 z m 88.928,-157.659994 c -1.571,-1.447 -3.142,-2.893 -4.713,-4.34 0.234,2.667 0.469,5.333 0.703,8 1.687,19.203 3.993,31.657 10.064,54.341994 1.486,5.552 3.102,15.913 3.984,25.54 1.567,17.1 4.74,31.721 8.732,40.24 0.8,1.707 1.6,3.415 2.4,5.122 1.482,-1.552 2.965,-3.104 4.447,-4.656 2.446,-2.561 6.247,-5.507 8.447,-6.549 4.975,-2.356 14.54,-2.474 19.75,-0.245 3.137,1.342 3.75,2.092 3.75,4.588 0,3.857 -2.098,4.507 -8.401,2.603 -10.083,-3.045 -19.196,3.051 -23.315,15.599 -3.074,9.366 -7.284,31.92 -7.284,39.028 0,10.079 5.374,26.888 8.596,26.888 2.516,0 7.025,-2.761 9.699,-5.939 3.059,-3.635 4.484,-7.704 5.466,-15.608 0.687,-5.532 0.933,-5.976 3.481,-6.269 3.04,-0.35 3.636,0.62 5.669,9.211 1.531,6.469 4.174,9.983 9.412,12.519 6.484,3.139 8.413,2.804 9.575,-1.664 4.987,-19.179 4.162,-34.282 -3.042,-55.678 -1.341,-3.983 -2.683,-7.968 -4.024,-11.951 -0.294,-8.298 -0.587,-16.597 -0.881,-24.895 -1.756,-49.608 -7.835,-78.062994 -18.79,-87.960994 -4.646,-4.198 -10.13,-6.233 -20.266,-7.52 -9.35,-1.187 -17.255,-4.693 -23.459,-10.405 z m 35.314,211.545994 c -3.162,1.612 -5.75,3.198 -5.75,3.525 0,0.327 0.903,3.744 2.007,7.592 2.916,10.168 5.767,25.734 6.502,35.497 0.63,8.363 0.273,12.029 -3.024,31.075 -1.488,8.596 -1.504,9.944 -0.151,13.181 1.634,3.911 5.659,5.727 12.718,5.738 5.23,0.008 32.201,-6.83 33.948,-8.607 1.749,-1.779 0.779,-2.726 -9.752,-9.521 -3.439,-2.219 -7.92,-6.07 -9.959,-8.559 -3.222,-3.932 -3.76,-5.342 -4.106,-10.772 -0.219,-3.436 0.362,-11.149 1.291,-17.141 1.557,-10.043 6.946,-37.645 8.121,-41.589 0.392,-1.315 -0.347,-1.851 -3.295,-2.386 -5.156,-0.936 -10.218,-3.624 -13.671,-7.259 -0.957,-1.008 -1.915,-2.015 -2.872,-3.023 -1.043,1.553 -2.085,3.106 -3.128,4.659 -2.222,3.309 -4.795,5.509 -8.879,7.59 z m 45.773,-392.968 c -2.853,8.684 -2.797,7.963 -1.097,14.35 3.584,13.462 11.02,24.257006 21.19,30.763006 4.194,2.683 5.43,4.154 6.755,8.043 0.892,2.618 2.368,5.585 3.28,6.593 2.303,2.544 8.732,2.45 11.349,-0.167 2.105,-2.105 2.233,-2.891 2.032,-12.5 -0.082,-3.903 0.629,-8.097 2.032,-12.000006 2.947,-8.196 3.821,-29.1 1.609,-38.5 -4.286,-18.214 -11.895,-26.295 -30.028,-31.886 -10.447,-3.221 -10.25,-3.318 -10.983,5.353 -0.794,9.388 -3.132,20.798 -6.139,29.951 z m 15.31,54.717006 c -0.835,4.215 -0.018,18.89 1.384,24.865 1.319,5.621 6.196,15.938 12.763,27 5.728,9.648 10.849,24.3600006 11.717,33.6560006 0.196,2.097 0.391,4.193 0.587,6.29 -1.987,1.9259994 -3.974,3.8509994 -5.961,5.7769994 -4.561,4.421 -6.223,6.833 -7.078,10.277 -4.522,18.21 -4.616,20.454 -0.74,17.62 1.044,-0.763 3.054,-3.578 4.466,-6.254 3.021,-5.725 6.336,-6.981 8.116,-3.075 0.91,1.998 0.631,3.559 -1.573,8.818 -1.473,3.515 -3.399,8.113 -4.279,10.219 -1.38,3.302 -1.403,3.96 -0.167,4.785 1.79,1.195 8.211,0.311 12.012,-1.654 4.099,-2.12 10.609,-9.186 12.985,-14.094 1.897,-3.919 1.963,-4.981 0.994,-16.031 -1.329,-15.155 -1.333,-35.7409994 -0.01,-61.338 0.769,-14.882 0.744,-22.859 -0.096,-29.897 -1.197,-10.03 -4.846,-23.224 -7.363,-26.617 -1.339,-1.805 -1.46,-1.353 -1.353,5.069 0.141,8.47 -2.08,13.819 -7.135,17.186 -3.61,2.404 -10.879,3.061 -15.287,1.381 -3.536,-1.348 -7.586,-5.882 -8.893,-9.956 -0.646,-2.014 -1.905,-4.501 -2.798,-5.527 -1.553,-1.784 -1.653,-1.719 -2.291,1.5 z"
     fill="#020202"
     stroke="none"
     sodipodi:nodetypes="ccccsssccccccsccccssccscscsscccccsssccccscccccccccscsssscsccccsccccccssccccsscscsccsccccscccscscsscssscsccccccsccccccccsssccccssscscsccssccscscscccsccscsccscccccccsccccssscsccccscssccsccsccscccsccssssscsccscsssccccssccscccssccccssscsssssccccccccsscscccccsccscccssscccssccccsccscccsscsssscsccsssccccssccscssccsscssccsscssccscsssccssscscsscscscccscscccssccsscccsscsccssccsccscssscssssccscscsscsccsscscscscscsscssscssssssccssc" />
  <path
     id="path19"
     d="m 128.49846,-119.02327 c 5.671,4.281 6.96,7.955 3.451,9.833 -1.437,0.769 -2.889,0.213 -6.75,-2.582 -8.729,-6.321 -16.538,-9.479 -22.585,-9.133 -1.778,0.102 -3.556,0.203 -5.334,0.305 0,3.131 0,6.261 0,9.392 0,8.859 0.142,9.497 2.5,11.240006 1.375,1.017 5.589,2.605 9.364,3.53 6.507,1.594 7.244,1.587 14.155,-0.134 8.338,-2.076 10.481,-1.668 10.481,1.997 0,6.293 -18.687,9.141 -31.286,4.769 -1.929,-0.669 -3.856,-1.339 -5.785,-2.008 0.095,3.004 0.19,6.008 0.285,9.012 0.095,3.004 0.191,6.008 0.286,9.012 1.333,0.696 2.667,1.392 4,2.088 5.58,2.914 14.649,2.77 20.147,-0.32 4.468,-2.511 7.075,-2.473 8.712,0.127 0.846,1.343 0.573,2.239 -1.286,4.217 -5.617,5.979 -21.033,7.574 -30.653,3.17 -1.807,-0.827 -3.613,-1.654 -5.42,-2.481 -1.861,0.852 -3.722,1.703 -5.583,2.555 -10.211,4.675 -24.945,2.933 -30.906,-3.654 -1.925,-2.128 -1.451,-4.714 1.041,-5.67 0.879,-0.337 3.893,0.46 6.698,1.772 6.557,3.068 14.648,3.172 20.267,0.26 1.328,-0.688 2.655,-1.376 3.983,-2.064 0.096,-3.04 0.191,-6.08 0.287,-9.12 0.096,-3.04 0.191,-6.079 0.287,-9.119 -1.096,0.456 -2.191,0.913 -3.287,1.369 -6.988,2.91 -15.386,3.899 -22.024,2.593 -8.565,-1.685 -11.763,-3.476 -11.763,-6.59 0,-3.578 2.198,-3.977 10.508,-1.908 6.422,1.599 8.033,1.665 13.155,0.539 3.21,-0.706 7.525,-2.219 9.587,-3.363 1.25,-0.693006 2.5,-1.386006 3.75,-2.079006 0,-3.114 0,-6.227 0,-9.341 0,-8.845 -0.123,-9.387 -2.316,-10.221 -5.009,-1.904 -17.607,2.559 -25.795,9.139 -4.57,3.673 -8.246,3.528 -8.694,-0.341 -0.388,-3.346 4.473,-7.566 14.305,-12.417 8.634,-4.26 15.682,-5.7 21.059,-4.303 4.863,1.263 6.001,1.27 10.576,0.069 7.622,-2.002 20.276,2.078 30.583,9.86 z"
     fill="#020202"
     stroke="none" />
  <path
     id="path20"
     d="m 791.58846,-217.89227 c 0.922,0.922 1.147,14.715 0.95,58.25 -0.086,19.014 -0.172,38.028 -0.258,57.042 -1.167,0 -2.333,0 -3.5,0 -1.167,0 -2.333,0 -3.5,0 -0.086,-18.962 -0.172,-37.925 -0.258,-56.888 -0.187,-41.183 0.053,-57.264 0.872,-58.25 1.4,-1.687 4.089,-1.759 5.694,-0.154 z"
     fill="#020202"
     stroke="none" />
  <path
     id="path23"
     d="m 151.58046,-225.90027 c 0.66,0.66 1.2,1.92 1.2,2.8 0,2.912 -2.305,4 -8.476,4 -15.576,0 -32.192,3.528 -38.65,8.206 -4.374,3.169 -7.547,3.328 -9.272,0.465 -0.929,-1.541 -0.454,-2.409 3.016,-5.518 2.347,-2.104 6.861,-4.651 10.5,-5.925 12.161,-4.259 38.87,-6.84 41.682,-4.028 z"
     fill="#020202"
     stroke="none" />
  <path
     id="path24"
     d="m 682.37146,-118.10027 c 2.038,9.354 0.019,22.104006 -3.599,22.737006 -3.778,0.661 -4.473,-1.279 -4.15,-11.578006 0.265,-8.46 -0.016,-10.692 -1.889,-15.046 -1.21,-2.812 -2.779,-5.113 -3.487,-5.113 -1.551,0 -6.075,5.194 -6.964,7.995 -0.769,2.423 -4.685,2.695 -6.544,0.455 -2.218,-2.672 1.665,-10.202 7.565,-14.671 2.737,-2.073 5.717,-3.771 6.623,-3.774 1.891,-0.006 7.013,5.507 9.532,10.259 0.943,1.78 2.254,5.711 2.913,8.736 z"
     fill="#020202"
     stroke="none" />
  <path
     id="path25"
     d="m 86.57346,-215.82527 c 2.968,2.788 2.67,7.088 -0.522,7.542 -1.232,0.175 -3.693,-0.786 -5.5,-2.147 -6.11,-4.603 -17.468,-7.367 -34.752,-8.457 -9.178,-0.579 -11.515,-1.043 -12.408,-2.463 -0.803,-1.277 -0.797,-2.223 0.022,-3.5 0.974,-1.518 2.63,-1.725 12.495,-1.56 18.271,0.305 34.111,4.428 40.665,10.585 z"
     fill="#020202"
     stroke="none" />
  <path
     id="path26"
     d="m 920.68146,-125.83727 c 2.424,4.896 2.543,5.893 0.899,7.537 -2.353,2.353 -5.691,1.397 -7.149,-2.05 -1.714,-4.049 -5.114,-7.17 -7.016,-6.44 -0.792,0.304 -2.421,3.171 -3.621,6.371 -1.779,4.746 -2.12,7.455 -1.848,14.692 0.29,7.705006 0.095,9.021006 -1.479,10.000006 -5.022,3.122 -8.364,-11.551006 -5.325,-23.373006 2.001,-7.785 8.131,-17.353 11.418,-17.822 3.334,-0.476 11.617,6.027 14.121,11.085 z"
     fill="#020202"
     stroke="none" />
  <path
     id="path27"
     d="m 818.65646,-73.858264 c 2.65,1.417 3.199,2.257 2.941,4.5 -0.501,4.355 -4.292,4.124 -11.517,-0.701 -7.066,-4.719 -10.257,-8.589 -14.426,-17.497 -3.724,-7.958 -3.602,-11.903 0.383,-12.361 2.451,-0.282006 2.98,0.217 4.776,4.5 4.566,10.891 9.867,17.295 17.843,21.559 z"
     fill="#020202"
     stroke="none" />
  <path
     id="path28"
     d="m 783.60946,-98.871264 c 2.583,2.583 -2.46,15.245 -8.819,22.144 -4.845,5.257 -12.792,10.627 -15.725,10.627 -2.636,0 -4.613,-2.407 -3.862,-4.702 0.324,-0.989 2.817,-3.025 5.541,-4.524 5.623,-3.096 12.295,-10.927 14.065,-16.51 2.401,-7.573 5.659,-10.176006 8.8,-7.035 z"
     fill="#020202"
     stroke="none" />
  <path
     id="path29"
     d="m 69.18546,-30.600264 c 1.381,3.3 2.53,6.248 2.553,6.55 0.1,1.298 -2.54,2.95 -4.713,2.95 -1.884,0 -2.862,-1.104 -4.884,-5.522 -3.115,-6.804 -7.883,-25.675 -7.041,-27.868 0.379,-0.987 1.784,-1.61 3.63,-1.61 2.472,0 3.121,0.493 3.621,2.75 1.766,7.974 4.604,17.42 6.834,22.75 z"
     fill="#020202"
     stroke="none" />
  <path
     id="path30"
     d="m 128.91846,-56.026264 c 1.024,0.548 1.862,2.033 1.862,3.301 0,5.344 -6.57,26.835 -9.286,30.375 -1.41,1.838 -5.498,1.521 -6.585,-0.51 -0.675,-1.261 -0.225,-3.458 1.586,-7.75 1.391,-3.295 3.544,-10.006 4.786,-14.915 2.414,-9.541 4.38,-12.244 7.637,-10.501 z"
     fill="#020202"
     stroke="none" />
  <path
     id="path31"
     d="m 97.15546,-54.583264 c 0.894,0.894 1.625,2.012 1.625,2.483 0,3.793 -8.245,5.181 -10.394,1.75 -0.365,-0.583 -0.731,-1.167 -1.096,-1.75 0.365,-0.583 0.731,-1.167 1.096,-1.75 1.474,-2.355 6.71,-2.792 8.769,-0.733 z"
     fill="#020202"
     stroke="none" />
  <g
     inkscape:groupmode="layer"
     id="layer1"
     inkscape:label="Layer 1"
     transform="translate(-263.21954,-381.10027)" />
  <g
     inkscape:groupmode="layer"
     id="layer2"
     inkscape:label="Zonas"
     transform="translate(-263.21954,-381.10027)">
    <g
       id="Piernas"
       inkscape:label="Piernas"
       style="fill:none">
      <path
         id="Pierna-izquierdafrontal"
         d="m 365.103,423.657 c 6.403,-2.274 12.498,-8.251 16.973,-16.647 4.299,-8.066 11.209,-15.61 18.067,-19.723 6.188,-3.711 16.219,-6.545 21.581,-6.097 1.236,0.103 2.473,0.207 3.709,0.31 1.237,3.5 2.474,7 3.711,10.5 8.336,23.584 12.843,47.972 12.846,69.5 0.003,21.219 -2.134,31.841 -10.762,53.5 -2.467,6.194 -3.095,9.502 -3.608,19 -0.768,14.233 -1.919,18.499 -6.123,22.703 -5.936,5.936 -14.139,3.563 -16.649,-4.816 -1.259,-4.202 -3.678,-6.273 -6.198,-5.306 -5.66,2.172 0.827,16.631 8.993,20.043 6.263,2.617 14.92,1.014 19.925,-3.688 0.698,-0.656 1.397,-1.312 2.095,-1.968 1.037,3.089 2.073,6.177 3.11,9.266 4.245,12.645 5.227,18.214 5.227,29.632 0,11.433 -0.754,16.131 -6.039,37.634 -4.488,18.261 -8.657,41.7 -9.6,53.97 -0.602,7.834 -0.475,8.66 1.984,12.856 1.445,2.466 7.832,9.403 14.193,15.414 14.639,13.835 14.764,13.625 -8.354,14.099 -20.334,0.417 -24.351,-0.123 -28.497,-3.829 -2.84,-2.539 -3.165,-3.38 -2.984,-7.744 0.112,-2.693 1.161,-10.451 2.333,-17.239 1.452,-8.414 2.043,-15.554 1.858,-22.434 -0.198,-7.358 0.355,-13.345 2.043,-22.093 3.17,-16.432 3.535,-48.558 0.698,-61.5 -2.65,-12.091 -6.23,-21.418 -11.318,-29.494 -6.983,-11.084 -17.333,-33.823 -16.001,-35.155 0.176,-0.176 2.073,0.572 4.214,1.664 2.622,1.337 5.883,1.985 9.985,1.985 14.494,0 24.938,-11.025 27.473,-29 0.956,-6.782 -0.104,-9.238 -3.805,-8.81 -2.323,0.268 -2.79,0.914 -3.482,4.81 -1.702,9.584 -3.784,14.812 -7.638,19.191 -6.867,7.802 -16.234,8.484 -23.04,1.679 -5.877,-5.877 -6.525,-8.106 -6.505,-22.37 0.02,-14.39 1.686,-24.216 6.609,-38.991 0.999,-2.997 1.997,-5.994 2.996,-8.991 -0.718,-0.582 -1.436,-1.162 -2.154,-1.744 -4.266,-3.454 -6.029,-0.608 -11.592,18.726 -0.576,2 -1.151,4 -1.727,6 -0.461,-1.5 -0.921,-3 -1.382,-4.5 -2.092,-6.81 -5.054,-22.488 -6.246,-33.062 -0.585,-5.191 -1.28,-10.795 -1.544,-12.453 -0.454,-2.852 -0.204,-3.113 4.625,-4.828 z"
         fill="#ffffff"
         stroke="none"
         inkscape:label="Pierna izquierda frontal"
         sodipodi:insensitive="true"
         style="fill:none" />
      <path
         id="Pierna-derechafrontal"
         d="m 271.675,721.988 c 4.801,-4.118 10.763,-10.111 13.249,-13.317 4.156,-5.361 4.55,-6.367 4.899,-12.535 0.473,-8.364 -4.22,-37.038 -9.841,-60.136 -5.465,-22.454 -6.707,-33.465 -5.158,-45.729 0.997,-7.89 6.107,-26.536 7.713,-28.142 0.235,-0.235 2.243,0.833 4.463,2.371 8.704,6.032 20.439,3.728 25.565,-5.02 3.301,-5.632 4.145,-10.646 2.081,-12.359 -2.525,-2.096 -5.269,-0.397 -7.099,4.396 -3.085,8.078 -10.219,10.888 -16.033,6.315 -4.351,-3.423 -5.73,-8.113 -6.563,-22.339 -0.716,-12.23 -1.029,-13.667 -5.224,-24.039 -7.702,-19.043 -9.17,-26.913 -9.135,-48.954 0.039,-24.36 3.03,-41.343 12.125,-68.84 4.283,-12.95 5.09,-13.607 14.558,-11.846 13.447,2.501 25.328,11.465 32.124,24.238 4.874,9.16 9.099,13.606 16.11,16.952 5.877,2.805 6.39,3.3 6,5.782 -0.235,1.493 -0.931,7.214 -1.548,12.714 -1.17,10.432 -5.578,32.991 -6.911,35.374 -0.547,0.978 -0.97,0.544 -1.459,-1.498 -2.238,-9.338 -5.953,-19.738 -7.66,-21.445 -1.565,-1.565 -2.388,-1.757 -3.954,-0.919 -2.609,1.396 -2.494,4.12 0.552,13.063 4.159,12.212 6.712,26.432 6.808,37.925 0.082,9.824 -0.102,10.847 -2.861,15.892 -3.742,6.843 -8.923,10.448 -14.885,10.358 -10.062,-0.152 -17.284,-8.401 -19.522,-22.301 -1.153,-7.161 -1.884,-8.254 -5.204,-7.784 -2.059,0.291 -2.405,0.956 -2.672,5.134 -0.836,13.083 7.818,27.405 19.122,31.645 4.67,1.752 13.815,1.284 18.155,-0.929 2.141,-1.092 4.083,-1.796 4.314,-1.565 1.416,1.416 -8.616,23.756 -14.747,32.841 -7.318,10.844 -12.397,27.347 -13.972,45.403 -1.136,13.026 0.067,35.354 2.605,48.306 0.944,4.815 1.755,14.352 1.87,22 0.129,8.514 1.049,18.543 2.493,27.153 3.702,22.073 2.581,23.174 -24.092,23.674 -18.075,0.339 -24.232,-0.384 -24.717,-2.902 -0.153,-0.797 3.65,-4.819 8.451,-8.937 z"
         fill="#ffffff"
         stroke="none"
         inkscape:label="Pierna derecha frontal"
         style="fill:none" />
      <path
         id="Gluteos"
         d="m 966.633,444.5 c 3.018,-20.18 7.248,-38.326 12.238,-52.5 1.646,-4.675 3.915,-14.125 5.043,-21 1.128,-6.875 2.847,-15.393 3.819,-18.929 2.042,-7.429 1.342,-7.061 18.203,-9.568 21.823,-3.244 65.075,-3.741 85.868,-0.987 8.843,1.171 20.695,3.693 21.878,4.655 1.392,1.132 4.617,14.397 6.776,27.873 0.841,5.249 2.902,13.574 4.578,18.5 3.488,10.249 8.051,27.824 10.632,40.956 1.316,6.696 1.776,13.993 1.795,28.5 0.024,18.02 -0.183,20.323 -2.722,30.345 -1.511,5.965 -3.144,11.553 -3.628,12.418 -0.971,1.735 -0.921,1.98 -3.694,-18.263 -3.464,-25.286 -8.523,-39.275 -17.331,-47.927 -1.672,-1.642 -3.343,-3.284 -5.015,-4.926 1.344,-0.602 2.688,-1.203 4.032,-1.805 3.478,-1.557 3.987,-2.186 3.713,-4.574 -0.426,-3.704 -3.265,-4.018 -10.573,-1.168 -8.49,3.311 -19.867,3.215 -27.291,-0.229 -7.314,-3.393 -11.911,-7.559 -15.508,-14.052 -2.834,-5.116 -2.959,-5.89 -3.288,-20.319 -0.198,-8.67 -0.795,-15.549 -1.415,-16.301 -0.59,-0.715 -2.235,-1.165 -3.657,-1 -0.862,0.1 -1.724,0.201 -2.586,0.301 -0.179,5 -0.359,10 -0.538,15 -0.653,18.216 -2.256,22.826 -10.582,30.436 -9.463,8.649 -22.996,10.893 -36.496,6.051 -7.347,-2.635 -9.884,-2.25 -9.884,1.498 0,1.927 0.853,2.954 3.5,4.216 1.925,0.918 3.5,1.942 3.5,2.276 0,0.334 -2.083,2.613 -4.629,5.065 -8.676,8.356 -13.455,22.345 -17.547,51.359 -2.502,17.742 -2.808,17.858 -6.825,2.599 -1.852,-7.037 -2.287,-11.685 -2.526,-27 -0.159,-10.175 -0.087,-19.85 0.16,-21.5 z"
         fill="#ffffff"
         stroke="none"
         inkscape:label="Gluteos"
         style="fill:none" />
      <path
         id="PIerna-derechatrasera"
         d="m 1060.436,425.84 c 6.204,5.712 14.109,9.218 23.459,10.405 10.136,1.287 15.62,3.322 20.266,7.52 10.955,9.898 17.034,38.353 18.79,87.961 0.294,8.298 0.587,16.597 0.881,24.895 1.341,3.983 2.683,7.968 4.024,11.951 7.204,21.396 8.029,36.499 3.042,55.678 -1.162,4.468 -3.091,4.803 -9.575,1.664 -5.238,-2.536 -7.881,-6.05 -9.412,-12.519 -2.033,-8.591 -2.629,-9.561 -5.669,-9.211 -2.548,0.293 -2.794,0.737 -3.481,6.269 -0.982,7.904 -2.407,11.973 -5.466,15.608 -2.674,3.178 -7.183,5.939 -9.699,5.939 -3.222,0 -8.596,-16.809 -8.596,-26.888 0,-7.108 4.21,-29.662 7.284,-39.028 4.119,-12.548 13.232,-18.644 23.315,-15.599 6.303,1.904 8.401,1.254 8.401,-2.603 0,-2.496 -0.613,-3.246 -3.75,-4.588 -5.21,-2.229 -14.775,-2.111 -19.75,0.245 -2.2,1.042 -6.001,3.988 -8.447,6.549 -1.482,1.552 -2.965,3.104 -4.447,4.656 -0.8,-1.707 -1.6,-3.415 -2.4,-5.122 -3.992,-8.519 -7.165,-23.14 -8.732,-40.24 -0.882,-9.627 -2.498,-19.988 -3.984,-25.54 -6.071,-22.685 -8.377,-35.139 -10.064,-54.342 -0.234,-2.667 -0.469,-5.333 -0.703,-8 1.571,1.447 3.142,2.893 4.713,4.34 z"
         fill="#ffffff"
         stroke="none"
         inkscape:label="Pierna derecha trasera"
         style="fill:none" />
      <path
         id="PIerna-izquierdatrasera"
         d="m 971.508,583.5 c 0.742,-3.3 2.907,-10.5 4.81,-16 3.372,-9.743 3.477,-10.524 4.107,-30.364 1.274,-40.107 5.349,-68.224 11.986,-82.721 3.237,-7.071 9.595,-13.786 14.842,-15.673 2.336,-0.84 7.966,-2.015 12.512,-2.612 9.308,-1.222 16.8,-4.353 22.891,-9.567 2.245,-1.921 4.276,-3.298 4.514,-3.06 0.621,0.621 -0.894,16.211 -2.769,28.496 -0.881,5.774 -3.336,17.249 -5.455,25.5 -2.119,8.251 -4.328,19.276 -4.91,24.501 -2.749,24.672 -3.313,28.539 -5.1,34.988 -1.052,3.796 -3.023,9.413 -4.38,12.482 -0.823,1.86 -1.645,3.72 -2.468,5.58 -1.416,-1.536 -2.833,-3.073 -4.249,-4.609 -2.337,-2.535 -6.049,-5.528 -8.249,-6.65 -8.061,-4.112 -23.615,-1.632 -24.401,3.891 -0.427,3 3.072,4.832 6.652,3.483 7.838,-2.955 13.751,-1.819 19.233,3.695 4.447,4.473 7.018,11.19 10.383,27.126 4.622,21.892 4.288,31.44 -1.581,45.082 -2.555,5.938 -4.642,6.332 -10.615,2.006 -4.628,-3.352 -7.178,-8.897 -8.142,-17.705 -0.417,-3.81 -1.191,-6.017 -2.369,-6.758 -2.339,-1.47 -5.149,0.295 -5.555,3.491 -0.783,6.164 -3.506,11.946 -7.195,15.279 -3.879,3.505 -10.374,5.666 -12.001,3.994 -1.72,-1.768 -3.996,-17.88 -3.919,-27.735 0.044,-5.577 0.686,-12.84 1.428,-16.14 z"
         fill="#ffffff"
         stroke="none"
         inkscape:label="Pierna izquierda trasera"
         style="fill:none" />
      <g
         id="Gemelos"
         inkscape:label="Gemelos"
         style="fill:none">
        <path
           id="Gemelo-derechofrontal"
           d="m 313.068,609.5 c 1.824,-13.474 8.462,-34.5 10.892,-34.5 1.109,0 4.161,16.763 4.755,26.119 0.659,10.38 -0.441,15.645 -6.246,29.881 -2.355,5.775 -5.089,13.2 -6.075,16.5 -0.598,2 -1.196,4 -1.794,6 -0.234,-1.5 -0.467,-3 -0.701,-4.5 -1.284,-8.231 -1.792,-32.401 -0.831,-39.5 z"
           fill="#ffffff"
           stroke="none"
           inkscape:label="Gemelo derecho frontal"
           style="fill:none" />
        <path
           id="Gemelo-izquierdofrontal"
           d="m 385.008,589.5 c 2.853,-15.92 2.977,-16.061 6.801,-7.764 5.841,12.673 7.603,23.116 7.639,45.264 0.017,10.725 -0.345,20.85 -0.804,22.5 -0.894,3.212 -0.773,3.49 -11.798,-27.285 -3.888,-10.854 -4.334,-18.787 -1.838,-32.715 z"
           fill="#ffffff"
           stroke="none"
           inkscape:label="Gemelo izquierdo frontal"
           style="fill:none" />
        <path
           style="fill:none;fill-opacity:0.552795;stroke:none;stroke-opacity:1"
           d="m 1123.9726,552.31948 -5.2361,-4.48808 c -0.01,2.08772 -0.7466,3.69119 -3.1417,4.18888 -4.6906,-0.86288 -9.5841,-2.74026 -13.9131,-1.79524 -8.69,2.87192 -12.1733,5.494 -17.0109,21.62292 -3.1672,11.77213 -5.4605,24.67764 -5.7287,35.67494 0.103,12.53093 4.3464,19.96502 8.3778,25.13326 5.7764,-0.9684 14.2984,-4.28624 16.1571,-25.73167 1.4217,-1.19563 3.3668,-3.78782 6.4329,-0.59841 2.6296,10.08704 2.9604,19.07406 17.9523,22.06641 4.4328,0.86483 6.0851,-19.93219 6.2833,-32.389 -0.9922,-7.6401 -2.2512,-14.74641 -4.0393,-20.79479 -2.4404,-7.54492 -6.2343,-14.79978 -6.1336,-22.88922 z"
           id="Gemelo-derechotrasero"
           sodipodi:nodetypes="ccccccccccccc"
           inkscape:label="Gemelo der trasero" />
        <path
           style="fill:none;fill-opacity:0.552795;stroke:none;stroke-opacity:1"
           d="m 979.74845,551.88457 5.2361,-4.48808 c 0.0101,2.08772 0.74653,3.69119 3.14166,4.18888 4.69059,-0.86288 9.58408,-2.74026 13.91309,-1.79524 8.69,2.87192 12.1733,5.494 17.0109,21.62292 3.1672,11.77213 5.4605,24.67764 5.7287,35.67494 -0.103,12.53093 -4.3464,19.96502 -8.3778,25.13326 -5.7764,-0.9684 -14.2984,-4.28624 -16.1571,-25.73167 -1.42164,-1.19563 -3.36682,-3.78782 -6.43288,-0.59841 -2.62959,10.08704 -2.96036,19.07406 -17.95233,22.06641 -4.43278,0.86483 -6.08508,-19.93219 -6.28332,-32.389 0.99217,-7.6401 2.25124,-14.74641 4.03927,-20.79479 2.4404,-7.54492 6.23438,-14.79978 6.13371,-22.88922 z"
           id="Gemelo-izquierdotrasero"
           sodipodi:nodetypes="ccccccccccccc"
           inkscape:label="Gemelo izq trasero" />
        <path
           id="Pie-izquierdotrasero"
           d="m 962.75,721.879 c 0.963,-0.787 5.005,-3.599 8.983,-6.25 7.954,-5.299 12.898,-11.145 13.888,-16.421 0.999,-5.325 -4.7,-43.115 -9.09,-60.277 -0.621,-2.428 -0.333,-2.658 5.243,-4.208 4.163,-1.157 7.083,-2.789 9.919,-5.541 1.34,-1.3 2.679,-2.6 4.019,-3.9 1.131,1.536 2.263,3.073 3.394,4.609 2.196,2.983 5.335,5.598 8.894,7.411 3.635,1.852 5.449,3.378 5.349,4.5 -0.083,0.934 -1.525,6.947 -3.202,13.362 -5.591,21.383 -6.411,38.192 -2.676,54.836 2.167,9.654 1.997,18.532 -0.399,20.928 -2.36,2.36 -9.448,3.532 -15.822,2.617 -4.45,-0.639 -19.711,-4.419 -27,-6.688 -3.62,-1.127 -4.132,-2.826 -1.5,-4.978 z"
           fill="#ffffff"
           stroke="none"
           inkscape:label="pie izquierdo trasero"
           style="fill:none" />
        <path
           id="Pie-derechotrasero"
           d="m 1095.75,637.386 c 4.084,-2.081 6.657,-4.281 8.879,-7.59 1.043,-1.553 2.085,-3.106 3.128,-4.659 0.957,1.008 1.915,2.015 2.872,3.023 3.453,3.635 8.515,6.323 13.671,7.259 2.948,0.535 3.687,1.071 3.295,2.386 -1.175,3.944 -6.564,31.546 -8.121,41.589 -0.929,5.992 -1.51,13.705 -1.291,17.141 0.346,5.43 0.884,6.84 4.106,10.772 2.039,2.489 6.52,6.34 9.959,8.559 10.531,6.795 11.501,7.742 9.752,9.521 -1.747,1.777 -28.718,8.615 -33.948,8.607 -7.059,-0.011 -11.084,-1.827 -12.718,-5.738 -1.353,-3.237 -1.337,-4.585 0.151,-13.181 3.297,-19.046 3.654,-22.712 3.024,-31.075 -0.735,-9.763 -3.586,-25.329 -6.502,-35.497 -1.104,-3.848 -2.007,-7.265 -2.007,-7.592 0,-0.327 2.588,-1.913 5.75,-3.525 z"
           fill="#ffffff"
           stroke="none"
           inkscape:label="pie derecho trasero"
           style="fill:none" />
      </g>
      <g
         id="Cuadriceps"
         inkscape:label="Cuadriceps"
         style="fill:none">
        <path
           style="fill:none;fill-opacity:0.552795;stroke:none;stroke-opacity:1"
           d="m 287.5365,381.48703 c 10.48673,-3.57867 20.88726,4.13305 30.21976,10.17299 8.17063,6.81603 11.94825,15.27944 17.20431,23.18843 3.44418,4.21298 9.99621,7.649 16.60591,11.0706 -1.84222,23.59924 -6.91143,50.9799 -9.27537,51.46335 -2.69999,-8.38685 -4.35822,-16.72222 -9.38116,-24.46381 -1.49474,0.24291 -2.66489,-0.97844 -4.6815,1.87379 1.43688,11.06816 7.16021,23.47254 8.22815,35.60546 0.17607,7.7712 2.00674,17.52793 0.29921,23.03882 -0.14857,4.40018 -4.00329,14.45019 -14.96028,16.90511 -15.21637,1.40252 -21.52628,-14.37755 -23.63724,-29.32214 -1.48677,-0.93672 -3.0106,-1.31747 -4.63768,-0.1496 -2.42781,2.39609 2.36622,25.32121 -3.66306,23.22317 -10.57303,-6.0015 -11.8546,-17.0291 -15.30175,-26.85745 -4.29162,-16.94846 -6.84127,-35.19601 -2.87719,-58.30126 2.8623,-23.39317 12.17834,-53.22846 15.85789,-57.44746 z"
           id="Quad-Derecho"
           sodipodi:nodetypes="cccccccccccccccc"
           inkscape:label="Quad derecho frontal" />
        <path
           style="fill:none;fill-opacity:0.552795;stroke:none;stroke-opacity:1"
           d="m 424.55074,381.64358 c -10.48673,-3.57867 -20.88726,4.13305 -30.21976,10.17299 -8.17063,6.81603 -11.94825,15.27944 -17.20431,23.18843 -3.44418,4.21298 -9.99621,7.649 -16.60591,11.0706 1.84222,23.59924 6.91143,50.9799 9.27537,51.46335 2.69999,-8.38685 4.35822,-16.72222 9.38116,-24.46381 1.49474,0.24291 2.66489,-0.97844 4.6815,1.87379 -1.43688,11.06816 -7.16021,23.47254 -8.22815,35.60546 -0.17607,7.7712 -2.00674,17.52793 -0.29921,23.03882 0.14857,4.40018 4.00329,14.45019 14.96028,16.90511 15.21637,1.40252 21.52628,-14.37755 23.63724,-29.32214 1.48677,-0.93672 3.0106,-1.31747 4.63768,-0.1496 2.42781,2.39609 -2.36622,25.32121 3.66306,23.22317 10.57303,-6.0015 11.8546,-17.0291 15.30175,-26.85745 4.29162,-16.94846 6.84127,-35.19601 2.87719,-58.30126 -2.8623,-23.39317 -12.17834,-53.22846 -15.85789,-57.44746 z"
           id="Quad-Izquierdo"
           sodipodi:nodetypes="cccccccccccccccc"
           inkscape:label="Quad izquierdo frontal" />
      </g>
      <g
         id="Isquios"
         inkscape:label="Isquios"
         style="fill:none">
        <path
           style="fill:none;fill-opacity:0.552795;stroke:none;stroke-opacity:1"
           d="m 1046.8143,423.1899 c 0.8849,12.81597 -2.0451,26.26665 -4.3823,39.08262 l -6.4329,28.27492 -5.6849,41.29036 c -1.7374,8.3933 -5.0745,16.06328 -8.2464,23.28514 -5.2652,-5.9038 -9.4308,-10.17718 -14.6428,-12.36414 -7.67921,-1.39483 -15.20624,-2.24615 -20.94442,3.29126 l -6.75935,5.97504 c 0.82259,-20.62281 0.49962,-41.90135 3.89874,-61.7512 2.43013,-14.17755 3.06576,-27.38637 10.78956,-39.52079 3.27003,-6.56624 8.09487,-10.21724 13.61387,-12.56663 l 25.0637,-5.10465 z"
           id="Isquios-izquierdos"
           sodipodi:nodetypes="ccccccccccccc"
           inkscape:label="Isquio izq" />
        <path
           style="fill:none;fill-opacity:0.552795;stroke:none;stroke-opacity:1"
           d="m 1055.8818,422.05516 c -0.8849,12.81597 3.5411,27.16427 5.8783,39.98024 l 6.4329,28.27492 4.9369,41.73917 c 1.7374,8.3933 4.9249,16.36248 8.9944,22.83633 5.2652,-5.9038 9.4308,-10.17718 14.6428,-12.36414 7.6792,-1.39483 15.2062,-2.24615 20.9444,3.29126 l 6.7593,5.97504 c -0.8225,-20.62281 -0.4996,-41.90135 -3.8987,-61.7512 -2.4301,-14.17755 -3.0658,-27.38637 -10.7896,-39.52079 -3.27,-6.56624 -8.0948,-10.21724 -13.6138,-12.56663 l -25.0637,-5.10465 c -6.2518,-2.89011 -10.9508,-6.71182 -15.2232,-10.78955 z"
           id="Isquio-derecho"
           sodipodi:nodetypes="ccccccccccccc"
           inkscape:label="isquio der" />
      </g>
    </g>
    <g
       id="Tren-superior"
       inkscape:label="Tren superior"
       style="fill:none;fill-opacity:0.38554204">
      <path
         id="Abdomen"
         d="m 278.882,236.573 c 0.485,-0.3 2.037,0.362 3.448,1.472 6.326,4.976 13.76,7.365 24.17,7.768 19.543,0.757 38.905,-4.815 46.402,-13.354 1.033,-1.176 2.065,-2.353 3.098,-3.529 1.033,1.176 2.065,2.353 3.098,3.529 7.497,8.539 26.859,14.111 46.402,13.354 10.723,-0.415 17.528,-2.682 24.874,-8.285 1.134,-0.865 2.27,-1.731 3.404,-2.596 0.165,2.595 0.329,5.189 0.494,7.784 0.165,2.595 0.328,5.189 0.493,7.784 -2.6,5.5 -5.198,11 -7.798,16.5 -4.289,9.075 -8.3,18.95 -8.914,21.946 -0.727,3.55 -0.881,10.717 -0.441,20.586 0.225,5.046 0.451,10.093 0.676,15.139 -2.045,1.435 -4.092,2.869 -6.137,4.304 -6.041,4.237 -15.151,14.123 -15.151,16.44 0,1.764 2.151,3.585 4.234,3.585 1.009,0 4.571,-2.925 7.915,-6.5 3.344,-3.575 6.387,-6.5 6.762,-6.5 0.758,0 6.726,24.888 7.702,32.121 0.208,1.54 0.415,3.081 0.623,4.621 -2.242,0.24 -4.484,0.48 -6.726,0.72 -8.293,0.888 -16.365,3.594 -22.543,7.559 -6.119,3.927 -14.871,13.176 -18.431,19.479 -5.24,9.276 -7.547,12.138 -11.641,14.439 -8.931,5.019 -20.256,1.593 -25.505,-7.716 -12.717,-22.554 -24.812,-31.586 -45.21,-33.762 -2.107,-0.225 -4.213,-0.449 -6.32,-0.674 0.215,-1.381 0.43,-2.762 0.645,-4.143 1.08,-6.939 6.804,-31.087 7.587,-32.007 0.404,-0.475 3.673,2.147 7.263,5.827 4.942,5.065 7.089,6.611 8.836,6.363 3.783,-0.536 3.351,-3.962 -1.231,-9.758 -2.276,-2.88 -6.206,-6.661 -8.732,-8.403 -8.931,-6.157 -8.484,-4.869 -7.682,-22.129 0.895,-19.242 0.322,-21.796 -9.166,-40.881 -7.285,-14.653 -7.38,-14.944 -7.38,-22.691 0,-4.316 0.397,-8.092 0.882,-8.392 z m 112.836,25.504 c -10.307,-7.782 -22.961,-11.862 -30.583,-9.86 -4.575,1.201 -5.713,1.194 -10.576,-0.069 -5.377,-1.397 -12.425,0.043 -21.059,4.303 -9.832,4.851 -14.693,9.071 -14.305,12.417 0.448,3.869 4.124,4.014 8.694,0.341 8.188,-6.58 20.786,-11.043 25.795,-9.139 2.193,0.834 2.316,1.376 2.316,10.221 0,3.114 0,6.227 0,9.341 -1.25,0.693 -2.5,1.386 -3.75,2.079 -2.062,1.144 -6.377,2.657 -9.587,3.363 -5.122,1.126 -6.733,1.06 -13.155,-0.539 -8.31,-2.069 -10.508,-1.67 -10.508,1.908 0,3.114 3.198,4.905 11.763,6.59 6.638,1.306 15.036,0.317 22.024,-2.593 1.096,-0.456 2.191,-0.913 3.287,-1.369 -0.096,3.04 -0.191,6.079 -0.287,9.119 -0.096,3.04 -0.191,6.08 -0.287,9.12 -1.328,0.688 -2.655,1.376 -3.983,2.064 -5.619,2.912 -13.71,2.808 -20.267,-0.26 -2.805,-1.312 -5.819,-2.109 -6.698,-1.772 -2.492,0.956 -2.966,3.542 -1.041,5.67 5.961,6.587 20.695,8.329 30.906,3.654 1.861,-0.852 3.722,-1.703 5.583,-2.555 1.807,0.827 3.613,1.654 5.42,2.481 9.62,4.404 25.036,2.809 30.653,-3.17 1.859,-1.978 2.132,-2.874 1.286,-4.217 -1.637,-2.6 -4.244,-2.638 -8.712,-0.127 -5.498,3.09 -14.567,3.234 -20.147,0.32 -1.333,-0.696 -2.667,-1.392 -4,-2.088 -0.095,-3.004 -0.191,-6.008 -0.286,-9.012 -0.095,-3.004 -0.19,-6.008 -0.285,-9.012 1.929,0.669 3.856,1.339 5.785,2.008 12.599,4.372 31.286,1.524 31.286,-4.769 0,-3.665 -2.143,-4.073 -10.481,-1.997 -6.911,1.721 -7.648,1.728 -14.155,0.134 -3.775,-0.925 -7.989,-2.513 -9.364,-3.53 -2.358,-1.743 -2.5,-2.381 -2.5,-11.24 0,-3.131 0,-6.261 0,-9.392 1.778,-0.102 3.556,-0.203 5.334,-0.305 6.047,-0.346 13.856,2.812 22.585,9.133 3.861,2.795 5.313,3.351 6.75,2.582 3.509,-1.878 2.22,-5.552 -3.451,-9.833 z M 332.405,350.5 c -2.23,-5.33 -5.068,-14.776 -6.834,-22.75 -0.5,-2.257 -1.149,-2.75 -3.621,-2.75 -1.846,0 -3.251,0.623 -3.63,1.61 -0.842,2.193 3.926,21.064 7.041,27.868 2.022,4.418 3,5.522 4.884,5.522 2.173,0 4.813,-1.652 4.713,-2.95 -0.023,-0.302 -1.172,-3.25 -2.553,-6.55 z m 27.97,-23.983 c -2.059,-2.059 -7.295,-1.622 -8.769,0.733 -0.365,0.583 -0.731,1.167 -1.096,1.75 0.365,0.583 0.731,1.167 1.096,1.75 2.149,3.431 10.394,2.043 10.394,-1.75 0,-0.471 -0.731,-1.589 -1.625,-2.483 z m 31.763,-1.443 c -3.257,-1.743 -5.223,0.96 -7.637,10.501 -1.242,4.909 -3.395,11.62 -4.786,14.915 -1.811,4.292 -2.261,6.489 -1.586,7.75 1.087,2.031 5.175,2.348 6.585,0.51 2.716,-3.54 9.286,-25.031 9.286,-30.375 0,-1.268 -0.838,-2.753 -1.862,-3.301 z"
         fill="#ffffff"
         stroke="none"
         inkscape:label="Abdomen"
         style="fill:none;fill-opacity:0.38554204" />
      <path
         id="cabeza-frontal"
         d="m 320.75,76.41 c 3.778,1.176 4.632,-0.805 4.785,-11.089 0.173,-11.58 1.676,-15.896 7.664,-22.013 6.149,-6.281 12.487,-8.71 22.801,-8.74 7.054,-0.02 9.437,0.411 14.006,2.537 6.725,3.128 11.653,7.896 14.35,13.884 1.589,3.527 2.044,6.692 2.088,14.511 0.019,3.333 0.037,6.667 0.056,10 1.083,0.104 2.167,0.209 3.25,0.313 1.788,0.172 3.3,0.847 3.361,1.5 0.246,2.635 -0.219,6.414 -1.299,10.556 -0.913,3.502 -1.787,4.64 -4.403,5.733 -3.365,1.406 -3.764,2.128 -4.907,8.863 -0.947,5.577 -2.981,9.099 -8.877,15.37 -7.61,8.094 -14.076,10.424 -23.623,8.515 C 342.581,124.866 329,108.304 329,100.738 c 0,-4.016 -1.511,-6.399 -4.54,-7.159 -3.31,-0.831 -5.46,-5.798 -5.46,-12.614 0,-4.397 0.241,-5.025 1.75,-4.555 z"
         fill="#ffffff"
         stroke="none"
         inkscape:label="cabeza frontal"
         style="fill:none;fill-opacity:0.38554204" />
      <g
         id="Espalda"
         inkscape:label="Espalda"
         style="fill:none;fill-opacity:0.38554204">
        <path
           id="Espalda-completa"
           d="m 928.175,189.51 c 3.779,-19.817 20.8,-33.45 41.825,-33.502 5.582,-0.014 7.136,-0.448 11,-3.068 6.207,-4.209 15.475,-8.859 28.738,-14.421 13.718,-5.752 15.868,-7.378 18.94,-14.325 2.905,-6.568 5.547,-17.443 4.746,-19.53 -0.812,-2.116 -3.227,-2.839 -5.472,-1.638 -1.966,1.052 -2.258,0.543 -3.176,-5.524 -0.176,-1.162 -1.85,-2.728 -3.998,-3.739 -3.945,-1.858 -5.575,-5.478 -6.051,-13.44 -0.209,-3.498 -0.017,-3.795 2.486,-3.853 1.492,-0.034 3.067,-0.417 3.5,-0.85 0.433,-0.433 0.8,-5.137 0.815,-10.454 0.032,-11.085 1.843,-16.383 7.554,-22.094 5.84,-5.84 13.064,-8.529 22.918,-8.529 7.045,0 9.454,0.443 14.067,2.589 11.691,5.437 16.307,13.71 16.387,29.368 0.015,3 0.031,6 0.046,9 1.083,0.104 2.167,0.209 3.25,0.313 3.1,0.299 3.249,0.506 3.244,4.5 -0.01,7.605 -1.696,11.531 -5.779,13.453 -3.03,1.427 -3.789,2.4 -4.292,5.495 -0.747,4.594 -1.439,5.385 -3.335,3.812 -1.884,-1.564 -5.588,0.247 -5.588,2.732 0,2.85 3.924,16.126 5.925,20.047 2.765,5.418 4.594,6.676 18.272,12.575 14.754,6.363 22.645,10.34 28.803,14.514 3.864,2.619 5.419,3.053 11,3.067 21.798,0.054 38.632,14.448 41.943,35.864 0.87,5.628 0.481,15.128 -0.619,15.128 -0.222,0 -2.213,-0.923 -4.424,-2.051 -2.211,-1.128 -8.947,-3.343 -14.968,-4.923 -12.538,-3.29 -16.473,-5.408 -21.552,-11.607 -3.748,-4.574 -6.264,-5.469 -8.34,-2.967 -2.399,2.89 2.356,9.972 10.421,15.521 1.383,0.952 2.766,1.903 4.15,2.855 -0.249,2.604 -0.497,5.21 -0.746,7.814 -0.689,7.212 -1.001,8.026 -4.056,10.583 -6.3,5.273 -13.702,8.227 -21.62,8.629 -9.756,0.495 -14.746,-1.455 -20.715,-8.094 -1.527,-1.699 -3.055,-3.398 -4.582,-5.097 0.211,-2.694 0.422,-5.387 0.633,-8.081 1.468,-18.734 7.644,-28.665 21.203,-34.09 2.308,-0.923 4.476,-2.558 4.817,-3.633 0.763,-2.403 -1.122,-4.859 -3.729,-4.859 -3.68,0 -13.286,5.375 -17.961,10.05 -8.239,8.239 -10.089,13.469 -12.89,36.45 -1.861,15.264 -7.425,28.926 -16.937,41.585 -4.344,5.781 -4.89,7.955 -2.498,9.94 2.653,2.202 5.905,-0.368 11.927,-9.418 5.122,-7.698 12.478,-23.178 12.525,-26.357 0.029,-1.961 1.274,-1.444 4.518,1.876 5.139,5.259 10.072,7.185 19.64,7.67 9.213,0.467 16.063,-1.054 22.663,-5.033 1.816,-1.095 3.483,-1.81 3.705,-1.588 1.047,1.047 -8.117,25.118 -13.908,36.532 -3.57,7.036 -7.026,14.962 -7.681,17.612 -1.004,4.065 -2.006,5.421 -6.392,8.661 -9.524,7.036 -17.382,18.046 -19.135,26.81 -0.632,3.159 1.398,5.595 4.203,5.043 1.829,-0.36 1.93,-0.517 5.903,-9.105 2.902,-6.273 11.804,-16.725 13.131,-15.419 0.884,0.87 0.991,33.404 0.113,34.282 -0.29,0.29 -4.062,-0.143 -8.384,-0.962 -15.617,-2.959 -32.716,-3.9 -61.134,-3.367 -22.096,0.415 -30.141,0.95 -39.631,2.639 -6.549,1.165 -12.04,1.986 -12.202,1.824 -0.863,-0.863 -1.386,-26.891 -0.617,-30.725 0.301,-1.5 0.601,-3 0.902,-4.5 1.554,1.629 3.107,3.259 4.661,4.888 2.564,2.689 6.351,8.314 8.415,12.5 3.9,7.909 6.56,9.85 9.178,6.696 3.083,-3.715 -6.379,-20.821 -15.519,-28.056 -2.799,-2.216 -5.863,-4.478 -6.807,-5.028 -0.944,-0.55 -2.167,-3.014 -2.716,-5.475 -0.55,-2.461 -4.104,-10.786 -7.898,-18.5 -6.027,-12.253 -14.763,-35.085 -13.795,-36.053 0.187,-0.187 3.258,1.066 6.823,2.785 5.316,2.564 8.037,3.203 15.122,3.552 10.707,0.527 16.863,-1.299 23.208,-6.884 2.479,-2.182 4.706,-3.62 4.948,-3.196 0.242,0.424 1.013,2.571 1.711,4.771 2.867,9.033 12.93,26.469 17.8,30.84 2.45,2.199 5.797,1.482 6.725,-1.441 0.45,-1.417 -0.525,-3.513 -3.35,-7.199 -7.964,-10.394 -13.708,-22.224 -16.254,-33.479 -0.587,-2.597 -1.642,-9.908 -2.342,-16.248 -1.621,-14.67 -4.635,-21.838 -12.188,-28.981 -5.083,-4.807 -14.091,-9.961 -17.448,-9.982 -2.056,-0.013 -3.95,1.969 -3.95,4.135 0,1.145 2.423,3.019 7.045,5.448 8.221,4.32 14.121,10.51 16.405,17.212 0.88,2.582 1.862,9.195 2.183,14.695 0.195,3.333 0.389,6.667 0.584,10 -1.204,1.387 -2.407,2.775 -3.611,4.162 -7.963,9.178 -20.644,11.353 -32.743,5.615 -3.5,-1.66 -8.019,-4.539 -10.043,-6.398 -3.447,-3.166 -3.718,-3.853 -4.296,-10.879 -0.206,-2.5 -0.41,-5 -0.616,-7.5 1.552,-0.971 3.105,-1.941 4.657,-2.912 8.899,-5.564 13.508,-15.582 7.557,-16.424 -1.822,-0.258 -3.426,0.86 -6.858,4.784 -5.483,6.268 -9.251,8.261 -20.8,11.004 -4.928,1.17 -11.29,3.195 -14.139,4.499 -4.388,2.009 -5.267,2.143 -5.752,0.878 -0.813,-2.12 -0.515,-9.96 0.602,-15.819 z m 118.654,92.719 c -3.141,-3.141 -6.399,-0.538 -8.8,7.035 -1.77,5.583 -8.442,13.414 -14.065,16.51 -2.724,1.499 -5.217,3.535 -5.541,4.524 -0.751,2.295 1.226,4.702 3.862,4.702 2.933,0 10.88,-5.37 15.725,-10.627 6.359,-6.899 11.402,-19.561 8.819,-22.144 z m 7.979,-119.021 c -1.605,-1.605 -4.294,-1.533 -5.694,0.154 -0.819,0.986 -1.059,17.067 -0.872,58.25 0.086,18.963 0.172,37.926 0.258,56.888 1.167,0 2.333,0 3.5,0 1.167,0 2.333,0 3.5,0 0.086,-19.014 0.172,-38.028 0.258,-57.042 0.197,-43.535 -0.028,-57.328 -0.95,-58.25 z m 27.068,144.034 c -7.976,-4.264 -13.277,-10.668 -17.843,-21.559 -1.796,-4.283 -2.325,-4.782 -4.776,-4.5 -3.985,0.458 -4.107,4.403 -0.383,12.361 4.169,8.908 7.36,12.778 14.426,17.497 7.225,4.825 11.016,5.056 11.517,0.701 0.258,-2.243 -0.291,-3.083 -2.941,-4.5 z"
           fill="#ffffff"
           stroke="none"
           inkscape:label="Espalda completa"
           style="fill:none;fill-opacity:0.38554204" />
        <path
           style="fill:none;fill-opacity:0.38554204"
           d="m 1043.7784,261.50562 c -9.2114,-13.28675 -19.4405,-26.29594 -20.1963,-41.88877 l -5.8345,-30.51896 -20.04681,-20.34598 c 19.24901,-1.78338 38.75351,-4.10028 54.00661,-6.88173 17.2861,5.38836 36.1019,7.42176 51.6129,7.92895 l -17.2043,17.35392 -6.1337,33.06221 c -2.2607,15.25948 -10.6472,28.22174 -19.1491,41.14076 -5.7276,21.3175 -11.6345,24.62358 -17.0548,0.1496 z"
           id="Espalda-alta"
           sodipodi:nodetypes="cccccccccc"
           inkscape:label="Espalda alta" />
        <path
           style="fill:none;fill-opacity:0.385542"
           d="m 966.69973,231.91626 c 24.36444,10.72984 36.96617,8.05231 50.11757,-3.73273 4.9434,8.97295 10.835,28.45286 22.5368,37.62424 5.3951,-9.31656 8.9008,7.27206 9.2938,12.51289 h 6.3471 c 5.9765,-25.9768 6.8598,-9.27654 11.0413,-13.8485 8.0746,-8.82877 20.2935,-33.99388 20.0231,-37.62473 10.5147,10.17973 28.3552,17.74857 50.8889,4.4159 -2.7342,17.18847 -16.3534,43.9494 -24.7235,60.9095 -9.0792,6.84556 -16.421,16.72612 -27.8215,16.50816 -15.8177,-5.39518 -17.5557,-18.04355 -25.0711,-27.7157 -3.981,2.78431 -8.1835,4.82113 -14.3867,0.10578 -2.3709,-3.03357 -11.7672,26.14485 -26.7108,28.57961 -7.4475,-1.33649 -17.5903,-9.74894 -27.45123,-17.78952 -8.50346,-19.36391 -18.99415,-38.74275 -24.08374,-59.9449 z"
           id="Dorsales"
           sodipodi:nodetypes="cccccsccccccccc"
           inkscape:label="Dorsales" />
        <path
           style="fill:none;fill-opacity:0.38554204"
           d="m 1022.7306,315.13388 c 1.7294,9.37371 -1.0464,10.81834 -6.5587,18.19505 23.8017,-1.61318 47.6033,-1.56036 71.405,0.21157 -5.2179,-9.36028 -9.0465,-7.90231 -5.0777,-18.61819 -5.3151,-0.18826 -24.7271,-11.56887 -26.3405,-32.15867 -3.103,1.79406 -6.2061,1.06703 -9.3091,-0.21157 1.1795,5.23917 -4.8129,24.36411 -24.119,32.58181 z"
           id="Lumbar"
           sodipodi:nodetypes="ccccccc"
           inkscape:label="Lumbar" />
      </g>
      <g
         id="g53"
         inkscape:label="Hombros"
         transform="translate(-14.598347,55.854545)"
         style="fill:none;fill-opacity:0.38554204">
        <path
           style="fill:none;fill-opacity:0.38554204"
           d="m 252.28083,165.53187 c 0,0 21.1335,-15.85807 24.23564,-14.36186 7.52068,3.62732 11.9188,-50.24921 21.2436,-52.660175 10.05569,-2.599939 -24.44197,1.24544 -30.66856,6.582525 -6.28332,5.3857 -12.05168,6.96569 -14.51148,13.11518 -2.69285,6.73211 -8.60973,21.2336 -8.22814,27.12796 0.24608,3.80124 2.99205,20.79478 7.92894,20.19637 z"
           id="Hombro-derechofrontal"
           sodipodi:nodetypes="csssssc"
           inkscape:label="Hombro derecho frontal" />
        <path
           style="fill:none;fill-opacity:0.38554204"
           d="m 1174.9784,206.83589 c 0,0 -45.064,-11.9512 -44.758,-22.29574 0.3192,-10.78989 -9.9153,-29.695 -2.4252,-29.28166 3.2371,0.17864 17.4589,2.23589 15.2354,1.61062 -4.9409,-1.3894 7.193,0.99644 13.3553,5.13602 6.0188,4.04315 17.1708,13.34499 17.5297,19.13357 0.2358,3.8019 5.0476,23.12205 1.0628,25.69719 z"
           id="Hombro-derechoposterior"
           sodipodi:nodetypes="csssssc"
           inkscape:label="Hombro der posterior"
           transform="translate(14.598347,-55.854545)" />
        <path
           style="fill:none;fill-opacity:0.38554204"
           d="m 943.01883,151.1377 c 0,0 45.83594,-12.00297 44.75792,-22.29574 -1.79723,-17.15963 12.35375,-29.331155 3.04855,-29.281657 -3.25782,0.01733 -18.19753,1.814297 -15.92101,1.423617 5.19023,-0.89073 -7.13076,1.18344 -13.29304,5.32302 -6.01874,4.04315 -17.17079,13.34499 -17.52968,19.13357 -0.23572,3.8019 -5.04757,23.12205 -1.06274,25.69719 z"
           id="Hombro-izquierdoposterior"
           sodipodi:nodetypes="csssssc"
           inkscape:label="Hombro izq posterior" />
        <path
           style="fill:none;fill-opacity:0.38554204"
           d="m 488.2214,164.86348 c 0,0 -21.40239,-15.54542 -24.73432,-14.67353 -9.60692,2.51393 -9.79379,-52.306172 -21.2436,-52.660175 -10.3814,-0.32097 24.44197,1.24544 30.66856,6.582525 6.28332,5.3857 12.46054,6.1151 15.25949,12.11783 2.94393,6.31365 8.28978,21.83276 7.48013,28.12531 -0.43927,3.41399 -3.15501,18.06292 -7.43026,20.50804 z"
           id="Hombro-izquierdofrontal"
           sodipodi:nodetypes="csssssc"
           inkscape:label="Hombro izquierdo frontal" />
      </g>
      <g
         id="Trapecios"
         inkscape:label="Trapecios"
         style="fill:none;fill-opacity:0.38554204">
        <path
           style="fill:none;fill-opacity:0.38554204"
           d="m 990.50994,99.572582 c 4.41365,5.228468 10.09636,11.985788 15.29506,14.040648 27.4933,-2.02348 44.0604,-4.62202 61.1437,-7.19339 20.1697,6.7386 40.3394,6.59192 60.5091,8.67437 9.4519,-6.61202 18.0199,-13.00304 14.1752,-16.290905 -15.5906,-11.837369 -36.2184,-15.037736 -48.9785,-25.758678 l -8.357,-23.960332 -36.1785,-0.21157 -6.5587,22.84959 c -17.0168,9.283422 -31.0934,15.626714 -51.05036,27.850267 z"
           id="Trapecio-trasero"
           sodipodi:nodetypes="cccccccccc"
           inkscape:label="Trapecio trasero"
           transform="translate(-14.598347,55.854545)" />
        <path
           style="fill:none;fill-opacity:0.38554204"
           d="m 281.10358,155.43726 c 0,0 0.20632,0.40869 6.90666,2.46845 5.16194,1.58684 9.53693,2.6431 8.72683,2.45597 -4.80781,-8.18106 14.91382,-4.51418 27.27383,-4.23247 17.82178,0.40619 23.99087,10.47165 31.62108,12.4464 4.86625,1.25942 17.07766,-11.19212 30.5779,-12.51628 13.93923,-1.36721 27.85618,-0.48457 27.29214,-1.22048 -1.96552,9.1189 7.06385,5.08547 16.65258,-0.12289 -8.36308,-8.04752 -22.90813,-15.13306 -39.7662,-18.95146 l -0.59842,8.07855 -5.90931,0.22441 -2.89457,-20.12987 c -0.68779,-1.58894 -11.79605,10.55329 -22.90789,10.84516 -8.57306,0.92502 -17.45434,-2.92639 -26.85705,-11.6016 -1.57974,6.38613 -0.65673,13.60694 -2.84311,19.91389 -1.01928,2.52651 -3.84166,1.3747 -6.2426,1.08261 -0.71739,-2.46333 -0.32275,-5.39001 -0.41472,-8.11394 -9.05714,0.59023 -26.41264,10.72181 -40.61715,19.37355 z"
           id="Trapecio-frontal"
           sodipodi:nodetypes="cscssscccccccccccc"
           inkscape:label="Trapecio frontal" />
      </g>
      <path
         style="fill:none;fill-opacity:0.38554204;stroke:none;stroke-opacity:1"
         d="m 268.27107,199.72231 c -3.10537,-17.89842 1.71567,-32.2999 12.16529,-44.21818 l 16.60827,4.86612 30.99504,3.96694 c 6.35961,1.3969 13.28248,4.08931 21.05124,8.72727 2.00392,-2.1359 -3.31213,-10.1459 6.92011,-5.76528 9.95179,-3.55053 5.08624,3.51471 7.04353,5.55371 7.82454,-3.12232 12.72043,-8.84629 29.51278,-10.09687 11.43565,-0.85166 27.59312,-1.75141 37.55498,-8.09817 8.37921,4.53016 15.62368,28.79985 13.22315,44.74711 -3.93393,18.60637 -12.45202,33.41219 -32.81246,38.4 -22.4156,0.8171 -51.31675,-1.76914 -50.84718,-26.08775 0.25071,-12.98368 1.44683,-28.97727 -4.16127,-28.65229 -4.08297,-0.73385 -3.08161,15.3326 -3.38001,29.19706 -0.26511,12.31784 -4.85435,24.42704 -39.25781,25.51199 -31.48619,2.38062 -37.91326,-16.68769 -44.61566,-38.05166 z"
         id="Pecho"
         sodipodi:nodetypes="cccccccscccscscc"
         inkscape:label="Pecho" />
      <g
         id="Brazos"
         inkscape:label="Brazos"
         style="fill:none;fill-opacity:0.38554204">
        <g
           id="Antebrazos"
           inkscape:label="Antebrazos"
           style="fill:none;fill-opacity:0.38554204">
          <path
             style="fill:none;fill-opacity:0.38554204;stroke:none;stroke-opacity:1"
             d="m 218.56963,278.93434 8.97616,3.21646 5.68491,17.65313 c 1.28911,7.18093 0.4868,14.36186 0.2992,21.54279 l 5.3857,0.14961 2.31884,-6.58253 c -0.53379,-5.33583 -0.23237,-11.04567 0.22441,-16.3815 3.07445,-1.43424 6.32534,-1.8807 9.20057,-2.31884 3.86371,12.99441 -0.56115,25.36809 -3.81487,37.40069 -8.71883,16.33846 -19.23411,30.41184 -21.842,54.4554 l 11.66901,14.96028 c 3.15611,7.89516 4.2956,15.28616 5.0865,22.59001 -2.28678,1.42677 -6.9735,-5.87354 -11.36981,-12.11782 l -3.88968,1.34643 c -0.9979,8.11249 8.43714,19.83785 5.98411,24.23564 -3.76704,2.52399 -9.04911,1.16574 -16.00749,-4.48808 -4.31242,-3.07633 -9.35112,-8.36959 -10.6218,-15.55869 l 0.44881,-63.58117 c -0.13835,-16.89906 -2.32422,-33.60312 1.34643,-50.86494 3.03643,-9.1562 6.49341,-17.89184 10.921,-25.65687 z"
             id="antebrazo-derfrontal"
             sodipodi:nodetypes="cccccccccccccccccccc"
             inkscape:label="Antebrazo der frontal" />
          <path
             style="fill:none;fill-opacity:0.38554204;stroke:none;stroke-opacity:1"
             d="m 1193.6574,287.65447 c -1.1646,7.66938 -1.7926,17.01015 -4.4881,21.6176 -3.0453,2.9699 -7.3122,3.90376 -11.5195,4.9369 -0.2969,-1.26 -1.5531,-0.86909 -6.7321,-1.34643 -4.4609,1.67126 -11.8818,-15.11753 -13.0902,-17.35392 -3.9126,13.05558 -0.8154,27.08881 3.8149,37.40069 8.7188,16.33846 19.2341,30.41184 21.842,54.4554 l -11.669,14.96028 c -3.1561,7.89516 -4.2956,15.28616 -5.0865,22.59001 2.2868,1.42677 6.9735,-5.87354 11.3698,-12.11782 l 3.8897,1.34643 c 0.9979,8.11249 -8.4372,19.83785 -5.9841,24.23564 3.767,2.52399 9.0491,1.16574 16.0074,-4.48808 4.3125,-3.07633 9.3512,-8.36959 10.6218,-15.55869 l -0.4488,-63.58117 c 0.1384,-16.89906 2.3243,-33.60312 -1.3464,-50.86494 -3.0364,-9.1562 -2.7533,-8.46687 -7.1809,-16.2319 z"
             id="Antebrazo-dertrasero"
             sodipodi:nodetypes="ccccccccccccccccc"
             inkscape:label="Antebrazo der trasero" />
          <path
             style="fill:none;fill-opacity:0.38554204;stroke:none;stroke-opacity:1"
             d="m 910.4409,288.53223 c 1.1646,7.66938 1.7926,17.01015 4.4881,21.6176 3.0453,2.9699 7.3122,3.90376 11.5195,4.9369 0.2969,-1.26 1.5531,-0.86909 6.7321,-1.34643 4.4609,1.67126 11.8818,-15.11753 13.0902,-17.35392 3.9126,13.05558 0.8154,27.08881 -3.8149,37.40069 -8.7188,16.33846 -19.2341,30.41184 -21.842,54.4554 l 11.669,14.96028 c 3.1561,7.89516 4.2956,15.28616 5.0865,22.59001 -2.2868,1.42677 -6.9735,-5.87354 -11.3698,-12.11782 l -3.8897,1.34643 c -0.9979,8.11249 8.4372,19.83785 5.9841,24.23564 -3.767,2.52399 -9.0491,1.16574 -16.0074,-4.48808 -4.3125,-3.07633 -9.3512,-8.36959 -10.6218,-15.55869 l 0.4488,-63.58117 c -0.1384,-16.89906 -2.3243,-33.60312 1.3464,-50.86494 3.0364,-9.1562 2.7533,-8.46687 7.1809,-16.2319 z"
             id="Antebrazo-izqtrasero"
             sodipodi:nodetypes="ccccccccccccccccc"
             inkscape:label="Antebrazo der trasero" />
          <path
             style="fill:none;fill-opacity:0.38554204;stroke:none;stroke-opacity:1"
             d="m 494.02177,278.96694 -8.97616,3.21646 -5.68491,17.65313 c -1.28911,7.18093 -0.4868,14.36186 -0.2992,21.54279 l -5.3857,0.14961 -2.31884,-6.58253 c 0.53379,-5.33583 0.23237,-11.04567 -0.22441,-16.3815 -3.07445,-1.43424 -6.32534,-1.8807 -9.20057,-2.31884 -3.86371,12.99441 0.56115,25.36809 3.81487,37.40069 8.71883,16.33846 19.23411,30.41184 21.842,54.4554 l -11.66901,14.96028 c -3.15611,7.89516 -4.2956,15.28616 -5.0865,22.59001 2.28678,1.42677 6.9735,-5.87354 11.36981,-12.11782 l 3.88968,1.34643 c 0.9979,8.11249 -8.43714,19.83785 -5.98411,24.23564 3.76704,2.52399 9.04911,1.16574 16.00749,-4.48808 4.31242,-3.07633 9.35112,-8.36959 10.6218,-15.55869 l -0.44881,-63.58117 c 0.13835,-16.89906 2.32422,-33.60312 -1.34643,-50.86494 -3.03643,-9.1562 -6.49341,-17.89184 -10.921,-25.65687 z"
             id="Antebrazo-izqfrontal"
             sodipodi:nodetypes="cccccccccccccccccccc"
             inkscape:label="Antebrazo izq frontal" />
        </g>
        <g
           id="Biceps"
           inkscape:label="Biceps"
           style="fill:none;fill-opacity:0.38554204">
          <path
             style="fill:none;fill-opacity:0.38554204"
             d="m 448.65867,214.53035 c 5.14949,-0.47769 9.70645,2.59975 14.06266,6.88173 11.82725,8.01789 14.4776,27.5069 18.70034,45.03043 0.77209,4.08312 -0.7365,8.73641 -3.14166,13.61385 -0.46261,4.65112 -3.36592,8.34046 -7.03132,10.921 -16.78763,-6.26979 -25.34598,-18.76714 -27.37731,-36.20386 -3.27776,-21.31286 -3.44648,-37.58691 4.78729,-40.24315 z"
             id="Biceps-izq"
             sodipodi:nodetypes="ccccccc"
             inkscape:label="Biceps izquierdo" />
          <path
             style="fill:none;fill-opacity:0.38554204"
             d="m 264.50613,214.14467 c -5.14949,-0.47769 -10.30486,3.04856 -14.66107,7.33054 -11.86936,7.95473 -14.69302,27.18376 -18.70034,45.03043 -0.63144,4.37732 0.18028,10.09915 3.14166,13.61385 0.91142,4.20231 2.3187,8.49006 5.9841,11.0706 8.63472,-4.35318 19.0715,-0.40886 28.42453,-36.35346 1.9009,-18.97638 5.2453,-26.93193 -4.18888,-40.69196 z"
             id="Biceps-derecho"
             sodipodi:nodetypes="ccccccc"
             inkscape:label="Biceps derecho" />
        </g>
        <g
           id="Triceps"
           inkscape:label="Triceps"
           style="fill:none;fill-opacity:0.38554204">
          <path
             style="fill:none;fill-opacity:0.38554204;stroke:none;stroke-opacity:1"
             d="m 954.9533,206.30445 3.88306,25.57654 6.98182,21.58017 c -2.32268,7.15683 -3.91165,14.53941 -8.67438,20.94545 -5.03621,6.18022 -10.7874,12.52543 -20.94545,19.88761 l -3.80827,10.57851 c -3.41631,0.92496 -6.51996,2.47523 -11.84793,-0.42314 -3.34447,-4.20154 -1.7372,-13.35481 -2.53884,-20.09918 l -2.32728,-7.19339 c -1.09451,-11.89669 -2.91756,-23.48662 -0.39747,-36.90525 4.27499,-14.129 8.77947,-21.04056 13.85033,-23.62951 10.65098,-8.75996 17.73296,-8.13947 25.82441,-10.31781 z"
             id="Triceps-izq"
             sodipodi:nodetypes="cccccccccccc"
             inkscape:label="Triceps izq" />
          <path
             style="fill:none;fill-opacity:0.38554204;stroke:none;stroke-opacity:1"
             d="m 1148.9769,206.72463 -3.8831,25.57654 -6.9818,21.58017 c 2.3227,7.15683 3.9116,14.53941 8.6744,20.94545 5.0362,6.18022 10.7874,12.52543 20.9454,19.88761 l 3.8083,10.57851 c 3.4163,0.92496 6.5199,2.47523 11.8479,-0.42314 3.3445,-4.20154 1.7372,-13.35481 2.5388,-20.09918 l 2.3273,-7.19339 c 1.0945,-11.89669 2.9176,-23.48662 0.3975,-36.90525 -4.275,-14.129 -8.7795,-21.04056 -13.8503,-23.62951 -10.651,-8.75996 -17.733,-8.13947 -25.8244,-10.31781 z"
             id="Triceps-der"
             sodipodi:nodetypes="cccccccccccc"
             inkscape:label="Triceps der" />
          <path
             style="fill:none;fill-opacity:0.38554204;stroke-width:3.33333"
             d="m 227.77482,220.35587 7.29313,6.42045 -7.04379,16.45629 1.74536,23.43776 c 4.22173,-5.78515 -2.08188,3.66828 5.23609,15.52128 l -5.6101,-2.80504 -2.05704,2.86738 c -1.80541,-0.21415 -6.02414,-2.27166 -9.03849,-3.24138 l -0.24933,-29.29723 c -0.57817,-12.22683 4.6066,-21.20106 9.72417,-29.35951 z"
             id="Triceps-derechofrontal"
             sodipodi:nodetypes="cccccccccc"
             inkscape:label="Triceps der frontal" />
          <path
             style="fill:none;fill-opacity:0.38554204;stroke-width:3.33333"
             d="m 484.35416,220.61556 -7.29313,6.42045 7.04379,16.45629 -1.74536,23.43776 c -4.22173,-5.78515 2.08188,3.66828 -5.23609,15.52128 l 5.6101,-2.80504 2.05704,2.86738 c 1.80541,-0.21415 6.02414,-2.27166 9.03849,-3.24138 l 0.24933,-29.29723 c 0.57817,-12.22683 -4.6066,-21.20106 -9.72417,-29.35951 z"
             id="Triceps-izqfrontal"
             sodipodi:nodetypes="cccccccccc"
             inkscape:label="Triceps izq frontal" />
        </g>
      </g>
    </g>
  </g>
</svg>
